<?xml version="1.0" encoding="UTF-8"?>
<!DOCTYPE svg PUBLIC "-//W3C//DTD SVG 1.1//EN" "http://www.w3.org/Graphics/SVG/1.1/DTD/svg11.dtd">
<svg xmlns="http://www.w3.org/2000/svg" version="1.1" width="500px" height="416px" style="shape-rendering:geometricPrecision; text-rendering:geometricPrecision; image-rendering:optimizeQuality; fill-rule:evenodd; clip-rule:evenodd" xmlns:xlink="http://www.w3.org/1999/xlink">
<g><path style="opacity:1" fill="#f3f3f7" d="M -0.5,-0.5 C 166.167,-0.5 332.833,-0.5 499.5,-0.5C 499.5,138.167 499.5,276.833 499.5,415.5C 332.833,415.5 166.167,415.5 -0.5,415.5C -0.5,276.833 -0.5,138.167 -0.5,-0.5 Z"/></g>
<g><path style="opacity:1" fill="#fafcfc" d="M 385.5,75.5 C 387.246,78.6626 388.746,81.996 390,85.5C 390.671,84.7476 391.504,84.4142 392.5,84.5C 395.764,83.6758 399.098,83.3424 402.5,83.5C 408.997,86.3403 412.331,91.3403 412.5,98.5C 404.5,98.5 396.5,98.5 388.5,98.5C 359.814,99.1584 331.48,98.4917 303.5,96.5C 307.198,84.6778 315.198,80.1778 327.5,83C 330.902,84.3999 333.736,86.5665 336,89.5C 341.507,83.403 348.007,82.0697 355.5,85.5C 357.189,82.1224 358.855,78.7891 360.5,75.5C 368.833,68.8333 377.167,68.8333 385.5,75.5 Z"/></g>
<g><path style="opacity:1" fill="#c7eaf8" d="M 357.5,78.5 C 352.898,82.5405 347.565,83.5405 341.5,81.5C 339.653,82.511 337.82,83.511 336,84.5C 329.209,79.9569 321.709,78.4569 313.5,80C 308.723,82.4425 304.89,85.9425 302,90.5C 301.195,93.6965 301.362,96.6965 302.5,99.5C 331.338,99.8313 360.005,99.498 388.5,98.5C 396.5,98.5 404.5,98.5 412.5,98.5C 412.331,91.3403 408.997,86.3403 402.5,83.5C 410.329,85.7778 414.329,91.1111 414.5,99.5C 406.167,99.5 397.833,99.5 389.5,99.5C 389.281,100.675 389.614,101.675 390.5,102.5C 436.746,134.678 453.912,178.678 442,234.5C 440.783,241.255 439.283,247.922 437.5,254.5C 437.631,255.376 437.298,256.043 436.5,256.5C 435.205,255.902 433.872,255.402 432.5,255C 434.464,252.688 434.797,250.188 433.5,247.5C 433.685,250.139 432.852,252.806 431,255.5C 430.346,256.696 429.846,256.696 429.5,255.5C 430.326,254.549 430.492,253.549 430,252.5C 428.847,255.47 427.18,258.137 425,260.5C 425.642,253.831 424.976,253.831 423,260.5C 422.723,257.041 423.057,253.707 424,250.5C 422.185,255.022 420.685,259.689 419.5,264.5C 419.705,260.73 419.372,256.73 418.5,252.5C 416.717,253.348 416.217,254.681 417,256.5C 417.333,255.833 417.667,255.167 418,254.5C 418.701,257.928 418.368,261.262 417,264.5C 416.617,263.944 416.117,263.611 415.5,263.5C 413.598,262.489 411.598,262.322 409.5,263C 407.167,264.667 404.833,266.333 402.5,268C 397.333,269.5 395.5,267.667 397,262.5C 401.778,258.56 405.612,253.894 408.5,248.5C 407.754,247.264 407.421,245.93 407.5,244.5C 405.572,242.887 403.238,241.887 400.5,241.5C 398.667,243.167 396.833,244.833 395,246.5C 394.667,241.5 394.333,236.5 394,231.5C 392.826,229.329 390.993,228.329 388.5,228.5C 388.5,226.167 388.5,223.833 388.5,221.5C 384.833,221.5 381.167,221.5 377.5,221.5C 377.83,202.659 377.497,183.993 376.5,165.5C 364.678,164.505 352.678,164.172 340.5,164.5C 340.5,149.833 340.5,135.167 340.5,120.5C 331.745,120.168 323.745,120.501 316.5,121.5C 316.5,135.833 316.5,150.167 316.5,164.5C 308.833,164.5 301.167,164.5 293.5,164.5C 293.83,147.658 293.497,130.992 292.5,114.5C 291.081,113.549 289.415,113.216 287.5,113.5C 287.946,110.99 287.28,108.99 285.5,107.5C 278.687,106.509 271.687,106.175 264.5,106.5C 264.756,104.208 264.423,102.041 263.5,100C 249.167,99.3333 234.833,99.3333 220.5,100C 219.533,104.401 219.2,108.901 219.5,113.5C 216.941,113.198 214.607,113.532 212.5,114.5C 210.532,122.433 209.865,130.766 210.5,139.5C 196.323,139.171 182.323,139.504 168.5,140.5C 167.512,145.64 167.179,150.974 167.5,156.5C 157.652,156.173 147.986,156.506 138.5,157.5C 137.668,183.33 137.168,209.33 137,235.5C 136.5,235 136,234.5 135.5,234C 132.366,233.885 129.366,233.718 126.5,233.5C 127.027,228.597 128.027,223.764 129.5,219C 128.856,212.676 125.522,209.676 119.5,210C 118.667,210.833 117.833,211.667 117,212.5C 116.577,218.062 117.077,223.562 118.5,229C 118.167,230.167 117.833,231.333 117.5,232.5C 115.393,230.47 113.393,228.303 111.5,226C 108.162,225.124 106.829,225.291 107.5,226.5C 107.611,228.648 106.944,228.981 105.5,227.5C 105.167,228 104.833,228.5 104.5,229C 104.974,230.704 105.141,232.538 105,234.5C 108.946,238.446 112.946,242.446 117,246.5C 117.483,247.448 117.649,248.448 117.5,249.5C 116.209,249.263 115.209,249.596 114.5,250.5C 111.477,248.617 108.311,248.283 105,249.5C 98.1918,248.342 91.6918,246.342 85.5,243.5C 85.6657,239.154 85.499,234.821 85,230.5C 83.5881,228.548 81.7547,227.215 79.5,226.5C 79.6854,224.804 80.5187,223.471 82,222.5C 82.4988,218.514 82.6655,214.514 82.5,210.5C 83.2679,211.263 83.7679,212.263 84,213.5C 87.4314,206.416 85.5981,201.416 78.5,198.5C 76.2241,199.213 73.8907,199.713 71.5,200C 70.3333,201.833 68.8333,203.333 67,204.5C 66.2419,206.769 66.4086,208.936 67.5,211C 65.3162,212.898 64.9829,215.064 66.5,217.5C 67.2905,218.401 68.2905,219.068 69.5,219.5C 69.5,220.167 69.8333,220.5 70.5,220.5C 70.5,222.5 70.5,224.5 70.5,226.5C 68.2776,226.178 66.4443,226.845 65,228.5C 64.7662,243.191 64.2662,257.858 63.5,272.5C 63.5,273.167 63.5,273.833 63.5,274.5C 63.5,276.833 63.5,279.167 63.5,281.5C 63.8261,290.017 63.4927,298.35 62.5,306.5C 62.6659,301.489 62.4993,296.489 62,291.5C 55.4265,280.89 52.0932,269.223 52,256.5C 50.8359,228.818 55.5026,202.151 66,176.5C 85.492,144.668 111.659,120.168 144.5,103C 152.18,100.169 159.847,97.5027 167.5,95C 172.143,94.1696 176.81,93.5029 181.5,93C 204.536,92.7886 227.536,91.7886 250.5,90C 263.324,86.6249 275.991,82.6249 288.5,78C 311.536,73.3137 334.536,73.4803 357.5,78.5 Z"/></g>
<g><path style="opacity:1" fill="#adbdd0" d="M 385.5,75.5 C 388.013,78.4411 390.347,81.4411 392.5,84.5C 391.504,84.4142 390.671,84.7476 390,85.5C 388.746,81.996 387.246,78.6626 385.5,75.5 Z"/></g>
<g><path style="opacity:1" fill="#b7d8ec" d="M 360.5,75.5 C 358.855,78.7891 357.189,82.1224 355.5,85.5C 348.007,82.0697 341.507,83.403 336,89.5C 333.736,86.5665 330.902,84.3999 327.5,83C 315.198,80.1778 307.198,84.6778 303.5,96.5C 302.493,96.4524 302.16,97.4524 302.5,99.5C 301.362,96.6965 301.195,93.6965 302,90.5C 304.89,85.9425 308.723,82.4425 313.5,80C 321.709,78.4569 329.209,79.9569 336,84.5C 337.82,83.511 339.653,82.511 341.5,81.5C 347.565,83.5405 352.898,82.5405 357.5,78.5C 358.167,77.1667 359.167,76.1667 360.5,75.5 Z"/></g>
<g><path style="opacity:1" fill="#7498b5" d="M 303.5,96.5 C 331.48,98.4917 359.814,99.1584 388.5,98.5C 360.005,99.498 331.338,99.8313 302.5,99.5C 302.16,97.4524 302.493,96.4524 303.5,96.5 Z"/></g>
<g><path style="opacity:1" fill="#f9fbfb" d="M 212.5,114.5 C 220.167,114.5 227.833,114.5 235.5,114.5C 235.833,265.167 236.167,265.167 236.5,114.5C 255.167,114.5 273.833,114.5 292.5,114.5C 292.5,150.5 292.5,186.5 292.5,222.5C 289.821,222.525 288.488,223.858 288.5,226.5C 288.337,228.857 288.503,231.19 289,233.5C 290.802,234.789 291.969,236.456 292.5,238.5C 292.665,242.182 292.499,245.848 292,249.5C 281.405,242.952 270.238,237.619 258.5,233.5C 257.833,233.167 257.167,232.833 256.5,232.5C 242.673,228.818 228.673,226.818 214.5,226.5C 213.833,226.5 213.167,226.5 212.5,226.5C 212.5,226.167 212.5,225.833 212.5,225.5C 212.5,188.5 212.5,151.5 212.5,114.5 Z"/></g>
<g><path style="opacity:1" fill="#a1b3c6" d="M 285.5,107.5 C 287.28,108.99 287.946,110.99 287.5,113.5C 289.415,113.216 291.081,113.549 292.5,114.5C 273.833,114.5 255.167,114.5 236.5,114.5C 236.167,265.167 235.833,265.167 235.5,114.5C 227.833,114.5 220.167,114.5 212.5,114.5C 214.607,113.532 216.941,113.198 219.5,113.5C 219.2,108.901 219.533,104.401 220.5,100C 234.833,99.3333 249.167,99.3333 263.5,100C 264.423,102.041 264.756,104.208 264.5,106.5C 271.687,106.175 278.687,106.509 285.5,107.5 Z"/></g>
<g><path style="opacity:1" fill="#f7fcfd" d="M 285.5,107.5 C 285.5,109.5 285.5,111.5 285.5,113.5C 271.167,113.5 256.833,113.5 242.5,113.5C 242.178,111.278 242.845,109.444 244.5,108C 258.163,107.5 271.829,107.333 285.5,107.5 Z"/></g>
<g><path style="opacity:1" fill="#fafcfd" d="M 221.5,100.5 C 235.171,100.333 248.837,100.5 262.5,101C 263.406,102.699 263.739,104.533 263.5,106.5C 256.825,106.334 250.158,106.5 243.5,107C 241.771,108.789 241.104,110.956 241.5,113.5C 234.5,113.5 227.5,113.5 220.5,113.5C 220.231,109.069 220.564,104.735 221.5,100.5 Z"/></g>
<g><path style="opacity:1" fill="#82aec9" d="M 170.5,107.5 C 173.274,108.723 175.941,110.223 178.5,112C 176.154,111.921 173.987,111.088 172,109.5C 171.517,110.448 171.351,111.448 171.5,112.5C 161.833,112.5 152.167,112.5 142.5,112.5C 142.5,114.5 142.5,116.5 142.5,118.5C 152.167,118.5 161.833,118.5 171.5,118.5C 171.36,120.124 172.027,121.29 173.5,122C 171.179,123.713 170.179,122.88 170.5,119.5C 160.833,119.5 151.167,119.5 141.5,119.5C 141.5,116.833 141.5,114.167 141.5,111.5C 151.167,111.5 160.833,111.5 170.5,111.5C 170.5,110.167 170.5,108.833 170.5,107.5 Z"/></g>
<g><path style="opacity:1" fill="#bd88b3" d="M 376.5,116.5 C 378.017,116.511 379.184,117.177 380,118.5C 380.667,117.833 381.333,117.167 382,116.5C 381.333,118.5 381.333,120.5 382,122.5C 381.333,121.833 380.667,121.167 380,120.5C 376.524,123.186 376.024,122.853 378.5,119.5C 377.388,118.735 376.721,117.735 376.5,116.5 Z"/></g>
<g><path style="opacity:1" fill="#a8b6c6" d="M 214.5,117.5 C 216.833,117.5 219.167,117.5 221.5,117.5C 221.665,120.518 221.498,123.518 221,126.5C 220.503,123.854 220.336,121.187 220.5,118.5C 218.833,118.5 217.167,118.5 215.5,118.5C 215.664,121.187 215.497,123.854 215,126.5C 214.502,123.518 214.335,120.518 214.5,117.5 Z"/></g>
<g><path style="opacity:1" fill="#9db5c9" d="M 292.5,114.5 C 293.497,130.992 293.83,147.658 293.5,164.5C 301.167,164.5 308.833,164.5 316.5,164.5C 324.167,164.5 331.833,164.5 339.5,164.5C 339.5,150.167 339.5,135.833 339.5,121.5C 331.833,121.5 324.167,121.5 316.5,121.5C 323.745,120.501 331.745,120.168 340.5,120.5C 340.5,135.167 340.5,149.833 340.5,164.5C 352.678,164.172 364.678,164.505 376.5,165.5C 356.831,165.333 337.164,165.5 317.5,166C 316.179,175.833 316.179,185.667 317.5,195.5C 316.833,195.5 316.167,195.5 315.5,195.5C 315.5,185.5 315.5,175.5 315.5,165.5C 308.167,165.5 300.833,165.5 293.5,165.5C 293.18,184.576 293.513,203.576 294.5,222.5C 293.833,222.5 293.167,222.5 292.5,222.5C 292.5,186.5 292.5,150.5 292.5,114.5 Z"/></g>
<g><path style="opacity:1" fill="#f7fbfb" d="M 316.5,121.5 C 324.167,121.5 331.833,121.5 339.5,121.5C 339.5,135.833 339.5,150.167 339.5,164.5C 331.833,164.5 324.167,164.5 316.5,164.5C 316.5,150.167 316.5,135.833 316.5,121.5 Z"/></g>
<g><path style="opacity:1" fill="#cdd9e3" d="M 327.5,125.5 C 329.833,125.5 332.167,125.5 334.5,125.5C 334.5,128.5 334.5,131.5 334.5,134.5C 332.167,134.5 329.833,134.5 327.5,134.5C 327.5,131.5 327.5,128.5 327.5,125.5 Z"/></g>
<g><path style="opacity:1" fill="#93bdd7" d="M 135.5,116.5 C 137.256,117.552 137.923,119.219 137.5,121.5C 146.833,121.5 156.167,121.5 165.5,121.5C 165.5,123.833 165.5,126.167 165.5,128.5C 155.833,128.5 146.167,128.5 136.5,128.5C 136.443,133.199 134.776,133.699 131.5,130C 132.549,129.508 133.549,129.674 134.5,130.5C 135.386,129.675 135.719,128.675 135.5,127.5C 145.167,127.5 154.833,127.5 164.5,127.5C 164.5,125.833 164.5,124.167 164.5,122.5C 154.833,122.5 145.167,122.5 135.5,122.5C 135.719,121.325 135.386,120.325 134.5,119.5C 133.549,120.326 132.549,120.492 131.5,120C 133.093,119.051 134.426,117.885 135.5,116.5 Z"/></g>
<g><path style="opacity:1" fill="#bf9765" d="M 190.5,127.5 C 191.473,127.987 192.473,128.487 193.5,129C 192.333,129.5 191.5,130.333 191,131.5C 189.902,130.033 188.402,129.199 186.5,129C 188.058,128.79 189.391,128.29 190.5,127.5 Z"/></g>
<g><path style="opacity:1" fill="#a8b6c8" d="M 214.5,133.5 C 215.473,135.948 215.806,138.615 215.5,141.5C 217.167,141.5 218.833,141.5 220.5,141.5C 220.336,138.813 220.503,136.146 221,133.5C 221.498,136.482 221.665,139.482 221.5,142.5C 219.167,142.5 216.833,142.5 214.5,142.5C 214.5,139.5 214.5,136.5 214.5,133.5 Z"/></g>
<g><path style="opacity:1" fill="#d5e0e9" d="M 248.5,132.5 C 250.792,132.244 252.959,132.577 255,133.5C 255.498,136.482 255.665,139.482 255.5,142.5C 253.167,142.5 250.833,142.5 248.5,142.5C 248.5,139.167 248.5,135.833 248.5,132.5 Z"/></g>
<g><path style="opacity:1" fill="#d4dee8" d="M 272.5,132.5 C 274.792,132.244 276.959,132.577 279,133.5C 279.498,136.482 279.665,139.482 279.5,142.5C 276.833,142.5 274.167,142.5 271.5,142.5C 271.253,139.061 271.586,135.728 272.5,132.5 Z"/></g>
<g><path style="opacity:1" fill="#d2dde7" d="M 260.5,132.5 C 262.792,132.244 264.959,132.577 267,133.5C 267.498,136.482 267.665,139.482 267.5,142.5C 265.167,142.5 262.833,142.5 260.5,142.5C 260.5,139.167 260.5,135.833 260.5,132.5 Z"/></g>
<g><path style="opacity:1" fill="#ccd6e1" d="M 318.5,139.5 C 320.833,139.5 323.167,139.5 325.5,139.5C 325.5,142.5 325.5,145.5 325.5,148.5C 323.167,148.5 320.833,148.5 318.5,148.5C 318.5,145.5 318.5,142.5 318.5,139.5 Z"/></g>
<g><path style="opacity:1" fill="#f9fbfb" d="M 168.5,140.5 C 182.5,140.5 196.5,140.5 210.5,140.5C 210.5,168.5 210.5,196.5 210.5,224.5C 205.26,224.027 200.593,225.36 196.5,228.5C 186.872,229.241 177.539,231.241 168.5,234.5C 168.5,203.167 168.5,171.833 168.5,140.5 Z"/></g>
<g><path style="opacity:1" fill="#bbcee2" d="M 212.5,114.5 C 212.5,151.5 212.5,188.5 212.5,225.5C 211.508,225.672 210.842,225.338 210.5,224.5C 210.5,196.5 210.5,168.5 210.5,140.5C 196.5,140.5 182.5,140.5 168.5,140.5C 182.323,139.504 196.323,139.171 210.5,139.5C 209.865,130.766 210.532,122.433 212.5,114.5 Z"/></g>
<g><path style="opacity:1" fill="#b9c4d1" d="M 173.5,145.5 C 175.833,145.5 178.167,145.5 180.5,145.5C 180.5,149.5 180.5,153.5 180.5,157.5C 178.167,157.5 175.833,157.5 173.5,157.5C 173.5,153.5 173.5,149.5 173.5,145.5 Z"/></g>
<g><path style="opacity:1" fill="#f7fbfc" d="M 174.5,146.5 C 176.167,146.5 177.833,146.5 179.5,146.5C 179.5,149.833 179.5,153.167 179.5,156.5C 177.833,156.5 176.167,156.5 174.5,156.5C 174.5,153.167 174.5,149.833 174.5,146.5 Z"/></g>
<g><path style="opacity:1" fill="#e3a458" d="M 103.5,144.5 C 107.976,144.8 109.31,146.967 107.5,151C 105.866,151.494 104.199,151.66 102.5,151.5C 102.298,149.05 102.631,146.717 103.5,144.5 Z"/></g>
<g><path style="opacity:1" fill="#a8b8ca" d="M 214.5,148.5 C 216.833,148.5 219.167,148.5 221.5,148.5C 221.5,151.833 221.5,155.167 221.5,158.5C 219.167,158.5 216.833,158.5 214.5,158.5C 214.5,155.167 214.5,151.833 214.5,148.5 Z"/></g>
<g><path style="opacity:1" fill="#f2fafd" d="M 215.5,149.5 C 217.167,149.5 218.833,149.5 220.5,149.5C 220.5,152.167 220.5,154.833 220.5,157.5C 218.833,157.5 217.167,157.5 215.5,157.5C 215.5,154.833 215.5,152.167 215.5,149.5 Z"/></g>
<g><path style="opacity:1" fill="#aebdcf" d="M 224.5,148.5 C 226.527,148.338 228.527,148.505 230.5,149C 228.866,149.494 227.199,149.66 225.5,149.5C 225.5,152.167 225.5,154.833 225.5,157.5C 227.199,157.34 228.866,157.506 230.5,158C 228.527,158.495 226.527,158.662 224.5,158.5C 224.5,155.167 224.5,151.833 224.5,148.5 Z"/></g>
<g><path style="opacity:1" fill="#d2dde7" d="M 271.5,148.5 C 274.167,148.5 276.833,148.5 279.5,148.5C 279.5,151.833 279.5,155.167 279.5,158.5C 276.833,158.5 274.167,158.5 271.5,158.5C 271.5,155.167 271.5,151.833 271.5,148.5 Z"/></g>
<g><path style="opacity:1" fill="#dce7ef" d="M 318.5,152.5 C 323.833,152.5 329.167,152.5 334.5,152.5C 334.5,155.833 334.5,159.167 334.5,162.5C 329.167,162.5 323.833,162.5 318.5,162.5C 318.5,159.167 318.5,155.833 318.5,152.5 Z"/></g>
<g><path style="opacity:1" fill="#c29ec4" d="M 420.5,152.5 C 421.833,152.5 423.167,152.5 424.5,152.5C 424.99,154.948 424.157,156.615 422,157.5C 419.389,156.5 418.889,154.833 420.5,152.5 Z"/></g>
<g><path style="opacity:1" fill="#cdc9b2" d="M 108.5,176.5 C 106.265,176.205 104.265,176.539 102.5,177.5C 99.3694,174.871 96.3694,172.038 93.5,169C 91.6183,168.802 89.9516,168.302 88.5,167.5C 89.8333,167.5 91.1667,167.5 92.5,167.5C 92.5,165.833 92.5,164.167 92.5,162.5C 94.3883,159.101 96.8883,156.101 100,153.5C 100.667,154.167 100.667,154.833 100,155.5C 96.1227,158.321 94.1227,161.988 94,166.5C 97.4333,172.136 102.267,175.47 108.5,176.5 Z"/></g>
<g><path style="opacity:1" fill="#97b7cd" d="M 138.5,157.5 C 138.5,182.833 138.5,208.167 138.5,233.5C 138.715,235.179 138.048,236.179 136.5,236.5C 134.142,234.25 131.475,233.917 128.5,235.5C 127.287,235.253 126.62,234.586 126.5,233.5C 129.366,233.718 132.366,233.885 135.5,234C 136,234.5 136.5,235 137,235.5C 137.168,209.33 137.668,183.33 138.5,157.5 Z"/></g>
<g><path style="opacity:1" fill="#859db3" d="M 168.5,140.5 C 168.5,171.833 168.5,203.167 168.5,234.5C 168.167,234.5 167.833,234.5 167.5,234.5C 167.5,208.833 167.5,183.167 167.5,157.5C 157.833,157.5 148.167,157.5 138.5,157.5C 147.986,156.506 157.652,156.173 167.5,156.5C 167.179,150.974 167.512,145.64 168.5,140.5 Z"/></g>
<g><path style="opacity:1" fill="#f7fbfc" d="M 138.5,157.5 C 148.167,157.5 157.833,157.5 167.5,157.5C 167.5,183.167 167.5,208.833 167.5,234.5C 166.833,234.5 166.5,234.833 166.5,235.5C 163.97,232.312 161.304,229.145 158.5,226C 157.099,225.59 155.766,225.09 154.5,224.5C 154.5,222.167 154.5,219.833 154.5,217.5C 155.496,217.586 156.329,217.252 157,216.5C 157.384,214.803 157.218,213.137 156.5,211.5C 156.5,209.5 156.5,207.5 156.5,205.5C 158.5,205.5 160.5,205.5 162.5,205.5C 162.5,202.167 162.5,198.833 162.5,195.5C 159.5,195.5 156.5,195.5 153.5,195.5C 153.802,198.059 153.468,200.393 152.5,202.5C 151.391,202.443 150.391,202.11 149.5,201.5C 149.5,199.5 149.5,197.5 149.5,195.5C 146.5,195.5 143.5,195.5 140.5,195.5C 140.335,198.85 140.502,202.183 141,205.5C 141.232,206.737 141.732,207.737 142.5,208.5C 142.5,210.833 142.5,213.167 142.5,215.5C 142.337,217.857 142.503,220.19 143,222.5C 143.708,223.381 144.542,224.047 145.5,224.5C 142.811,227.193 140.478,230.193 138.5,233.5C 138.5,208.167 138.5,182.833 138.5,157.5 Z"/></g>
<g><path style="opacity:1" fill="#b4c0cf" d="M 140.5,160.5 C 143.5,160.5 146.5,160.5 149.5,160.5C 149.5,164.167 149.5,167.833 149.5,171.5C 146.5,171.5 143.5,171.5 140.5,171.5C 140.5,167.833 140.5,164.167 140.5,160.5 Z"/></g>
<g><path style="opacity:1" fill="#a0b1c5" d="M 153.5,160.5 C 156.5,160.5 159.5,160.5 162.5,160.5C 162.5,164.167 162.5,167.833 162.5,171.5C 159.5,171.5 156.5,171.5 153.5,171.5C 153.5,167.833 153.5,164.167 153.5,160.5 Z"/></g>
<g><path style="opacity:1" fill="#f7fbfc" d="M 141.5,161.5 C 143.833,161.5 146.167,161.5 148.5,161.5C 148.5,164.5 148.5,167.5 148.5,170.5C 146.167,170.5 143.833,170.5 141.5,170.5C 141.5,167.5 141.5,164.5 141.5,161.5 Z"/></g>
<g><path style="opacity:1" fill="#f4f9fc" d="M 154.5,161.5 C 156.833,161.5 159.167,161.5 161.5,161.5C 161.5,164.5 161.5,167.5 161.5,170.5C 159.167,170.5 156.833,170.5 154.5,170.5C 154.5,167.5 154.5,164.5 154.5,161.5 Z"/></g>
<g><path style="opacity:1" fill="#b0bece" d="M 214.5,163.5 C 216.833,163.5 219.167,163.5 221.5,163.5C 221.5,166.833 221.5,170.167 221.5,173.5C 219.167,173.5 216.833,173.5 214.5,173.5C 214.5,170.167 214.5,166.833 214.5,163.5 Z"/></g>
<g><path style="opacity:1" fill="#f5fbfd" d="M 215.5,164.5 C 217.167,164.5 218.833,164.5 220.5,164.5C 220.5,166.833 220.5,169.167 220.5,171.5C 218.833,171.5 217.167,171.5 215.5,171.5C 215.5,169.167 215.5,166.833 215.5,164.5 Z"/></g>
<g><path style="opacity:1" fill="#d4dde7" d="M 271.5,163.5 C 274.167,163.5 276.833,163.5 279.5,163.5C 279.665,166.518 279.498,169.518 279,172.5C 276.667,173.833 274.333,173.833 272,172.5C 271.502,169.518 271.335,166.518 271.5,163.5 Z"/></g>
<g><path style="opacity:1" fill="#d9a96b" d="M 92.5,162.5 C 92.5,164.167 92.5,165.833 92.5,167.5C 91.1667,167.5 89.8333,167.5 88.5,167.5C 87.7564,164.05 89.0897,162.384 92.5,162.5 Z"/></g>
<g><path style="opacity:1" fill="#b2becd" d="M 173.5,164.5 C 175.833,164.5 178.167,164.5 180.5,164.5C 180.5,168.167 180.5,171.833 180.5,175.5C 178.167,175.5 175.833,175.5 173.5,175.5C 173.5,171.833 173.5,168.167 173.5,164.5 Z"/></g>
<g><path style="opacity:1" fill="#f8fdfd" d="M 174.5,165.5 C 176.167,165.5 177.833,165.5 179.5,165.5C 179.5,168.5 179.5,171.5 179.5,174.5C 177.833,174.5 176.167,174.5 174.5,174.5C 174.5,171.5 174.5,168.5 174.5,165.5 Z"/></g>
<g><path style="opacity:1" fill="#b1bdcc" d="M 198.5,164.5 C 200.833,164.5 203.167,164.5 205.5,164.5C 205.5,168.167 205.5,171.833 205.5,175.5C 203.167,175.5 200.833,175.5 198.5,175.5C 198.5,171.833 198.5,168.167 198.5,164.5 Z"/></g>
<g><path style="opacity:1" fill="#f5f8f9" d="M 376.5,165.5 C 376.5,184.167 376.5,202.833 376.5,221.5C 360.167,221.5 343.833,221.5 327.5,221.5C 326.609,220.89 325.609,220.557 324.5,220.5C 324.5,219.833 324.167,219.5 323.5,219.5C 323.738,215.476 324.738,211.81 326.5,208.5C 327.164,201.461 324.164,197.128 317.5,195.5C 316.179,185.667 316.179,175.833 317.5,166C 337.164,165.5 356.831,165.333 376.5,165.5 Z"/></g>
<g><path style="opacity:1" fill="#bfcad7" d="M 185.5,164.5 C 187.833,164.5 190.167,164.5 192.5,164.5C 192.5,168.167 192.5,171.833 192.5,175.5C 190.167,175.5 187.833,175.5 185.5,175.5C 185.5,171.833 185.5,168.167 185.5,164.5 Z"/></g>
<g><path style="opacity:1" fill="#f3f9fa" d="M 186.5,165.5 C 188.167,165.5 189.833,165.5 191.5,165.5C 191.5,168.5 191.5,171.5 191.5,174.5C 189.833,174.5 188.167,174.5 186.5,174.5C 186.5,171.5 186.5,168.5 186.5,165.5 Z"/></g>
<g><path style="opacity:1" fill="#f3fbfc" d="M 199.5,165.5 C 201.167,165.5 202.833,165.5 204.5,165.5C 204.5,168.5 204.5,171.5 204.5,174.5C 202.833,174.5 201.167,174.5 199.5,174.5C 199.5,171.5 199.5,168.5 199.5,165.5 Z"/></g>
<g><path style="opacity:1" fill="#f6fafb" d="M 315.5,195.5 C 309.202,195.118 307.202,197.785 309.5,203.5C 310.11,204.391 310.443,205.391 310.5,206.5C 308.833,206.5 307.167,206.5 305.5,206.5C 305.5,210.167 305.5,213.833 305.5,217.5C 308.059,217.802 310.393,217.468 312.5,216.5C 314.176,217.183 314.843,218.517 314.5,220.5C 313.508,220.328 312.842,220.662 312.5,221.5C 308.569,225.605 306.569,230.605 306.5,236.5C 305.842,237.398 305.176,238.398 304.5,239.5C 303.148,238.476 301.815,237.476 300.5,236.5C 300.233,234.035 299.566,231.701 298.5,229.5C 298.5,228.833 298.167,228.5 297.5,228.5C 297.008,226.181 296.008,224.181 294.5,222.5C 293.513,203.576 293.18,184.576 293.5,165.5C 300.833,165.5 308.167,165.5 315.5,165.5C 315.5,175.5 315.5,185.5 315.5,195.5 Z"/></g>
<g><path style="opacity:1" fill="#b2c0ce" d="M 295.5,169.5 C 297.833,169.5 300.167,169.5 302.5,169.5C 302.5,173.167 302.5,176.833 302.5,180.5C 300.167,180.5 297.833,180.5 295.5,180.5C 295.5,176.833 295.5,173.167 295.5,169.5 Z"/></g>
<g><path style="opacity:1" fill="#aabacb" d="M 305.5,169.5 C 307.833,169.5 310.167,169.5 312.5,169.5C 312.5,173.167 312.5,176.833 312.5,180.5C 310.167,180.5 307.833,180.5 305.5,180.5C 305.5,176.833 305.5,173.167 305.5,169.5 Z"/></g>
<g><path style="opacity:1" fill="#f4fafd" d="M 306.5,170.5 C 308.167,170.5 309.833,170.5 311.5,170.5C 311.5,173.5 311.5,176.5 311.5,179.5C 309.833,179.5 308.167,179.5 306.5,179.5C 306.5,176.5 306.5,173.5 306.5,170.5 Z"/></g>
<g><path style="opacity:1" fill="#bcc8d5" d="M 332.5,169.5 C 334.833,169.5 337.167,169.5 339.5,169.5C 339.5,173.167 339.5,176.833 339.5,180.5C 337.167,180.5 334.833,180.5 332.5,180.5C 332.5,176.833 332.5,173.167 332.5,169.5 Z"/></g>
<g><path style="opacity:1" fill="#c4d0dd" d="M 224.5,163.5 C 226.833,163.5 229.167,163.5 231.5,163.5C 231.665,166.518 231.498,169.518 231,172.5C 228.959,173.423 226.792,173.756 224.5,173.5C 224.5,170.167 224.5,166.833 224.5,163.5 Z"/></g>
<g><path style="opacity:1" fill="#f4fafb" d="M 225.5,164.5 C 227.167,164.5 228.833,164.5 230.5,164.5C 230.5,166.833 230.5,169.167 230.5,171.5C 228.833,171.5 227.167,171.5 225.5,171.5C 225.5,169.167 225.5,166.833 225.5,164.5 Z"/></g>
<g><path style="opacity:1" fill="#d4dee8" d="M 260.5,163.5 C 262.833,163.5 265.167,163.5 267.5,163.5C 267.665,166.518 267.498,169.518 267,172.5C 264.959,173.423 262.792,173.756 260.5,173.5C 260.5,170.167 260.5,166.833 260.5,163.5 Z"/></g>
<g><path style="opacity:1" fill="#f5fcfd" d="M 296.5,170.5 C 298.167,170.5 299.833,170.5 301.5,170.5C 301.5,173.5 301.5,176.5 301.5,179.5C 299.833,179.5 298.167,179.5 296.5,179.5C 296.5,176.5 296.5,173.5 296.5,170.5 Z"/></g>
<g><path style="opacity:1" fill="#cccbbb" d="M 393.5,172.5 C 405.661,173.141 414.161,179.141 419,190.5C 419.667,193.167 419.667,195.833 419,198.5C 417.546,194.252 416.212,189.919 415,185.5C 412.179,182.511 409.012,180.844 405.5,180.5C 408.326,184.147 410.493,188.147 412,192.5C 412.814,194.902 412.647,197.235 411.5,199.5C 410.914,199.291 410.414,198.957 410,198.5C 409.093,187.092 402.926,180.759 391.5,179.5C 395.5,179.167 399.5,178.833 403.5,178.5C 402.263,177.719 401.263,176.719 400.5,175.5C 397.705,175.062 395.372,174.062 393.5,172.5 Z"/></g>
<g><path style="opacity:1" fill="#f3fafb" d="M 333.5,170.5 C 335.167,170.5 336.833,170.5 338.5,170.5C 338.5,173.5 338.5,176.5 338.5,179.5C 336.833,179.5 335.167,179.5 333.5,179.5C 333.5,176.5 333.5,173.5 333.5,170.5 Z"/></g>
<g><path style="opacity:1" fill="#e3a45a" d="M 108.5,176.5 C 109.322,182.209 107.489,183.543 103,180.5C 102.517,179.552 102.351,178.552 102.5,177.5C 104.265,176.539 106.265,176.205 108.5,176.5 Z"/></g>
<g><path style="opacity:1" fill="#d7e0e9" d="M 271.5,179.5 C 274.167,179.5 276.833,179.5 279.5,179.5C 279.5,182.5 279.5,185.5 279.5,188.5C 276.833,188.5 274.167,188.5 271.5,188.5C 271.5,185.5 271.5,182.5 271.5,179.5 Z"/></g>
<g><path style="opacity:1" fill="#afbdcd" d="M 214.5,179.5 C 216.833,179.5 219.167,179.5 221.5,179.5C 221.5,182.5 221.5,185.5 221.5,188.5C 219.167,188.5 216.833,188.5 214.5,188.5C 214.5,185.5 214.5,182.5 214.5,179.5 Z"/></g>
<g><path style="opacity:1" fill="#f6fcfd" d="M 215.5,180.5 C 217.167,180.5 218.833,180.5 220.5,180.5C 220.5,182.833 220.5,185.167 220.5,187.5C 218.833,187.5 217.167,187.5 215.5,187.5C 215.5,185.167 215.5,182.833 215.5,180.5 Z"/></g>
<g><path style="opacity:1" fill="#acbacc" d="M 185.5,183.5 C 187.857,183.337 190.19,183.503 192.5,184C 190.527,184.495 188.527,184.662 186.5,184.5C 186.5,187.5 186.5,190.5 186.5,193.5C 188.527,193.338 190.527,193.505 192.5,194C 190.19,194.497 187.857,194.663 185.5,194.5C 185.5,190.833 185.5,187.167 185.5,183.5 Z"/></g>
<g><path style="opacity:1" fill="#a1b1c4" d="M 198.5,183.5 C 200.833,183.5 203.167,183.5 205.5,183.5C 205.5,187.167 205.5,190.833 205.5,194.5C 203.167,194.5 200.833,194.5 198.5,194.5C 198.5,190.833 198.5,187.167 198.5,183.5 Z"/></g>
<g><path style="opacity:1" fill="#f7fcfc" d="M 199.5,184.5 C 201.167,184.5 202.833,184.5 204.5,184.5C 204.5,187.5 204.5,190.5 204.5,193.5C 202.833,193.5 201.167,193.5 199.5,193.5C 199.5,190.5 199.5,187.5 199.5,184.5 Z"/></g>
<g><path style="opacity:1" fill="#c9d3de" d="M 140.5,177.5 C 147.833,177.5 155.167,177.5 162.5,177.5C 162.5,181.167 162.5,184.833 162.5,188.5C 155.167,188.5 147.833,188.5 140.5,188.5C 140.5,184.833 140.5,181.167 140.5,177.5 Z"/></g>
<g><path style="opacity:1" fill="#fafcfd" d="M 141.5,179.5 C 148.167,179.5 154.833,179.5 161.5,179.5C 161.5,182.167 161.5,184.833 161.5,187.5C 154.833,187.5 148.167,187.5 141.5,187.5C 141.5,184.833 141.5,182.167 141.5,179.5 Z"/></g>
<g><path style="opacity:1" fill="#c7b79a" d="M 400.5,188.5 C 402.017,188.511 403.184,189.177 404,190.5C 405.885,192.914 406.552,195.581 406,198.5C 404.789,194.798 402.956,191.465 400.5,188.5 Z"/></g>
<g><path style="opacity:1" fill="#acbacb" d="M 214.5,194.5 C 216.833,194.5 219.167,194.5 221.5,194.5C 221.5,197.833 221.5,201.167 221.5,204.5C 219.167,204.5 216.833,204.5 214.5,204.5C 214.5,201.167 214.5,197.833 214.5,194.5 Z"/></g>
<g><path style="opacity:1" fill="#1c1f31" d="M 315.5,195.5 C 316.167,195.5 316.833,195.5 317.5,195.5C 324.164,197.128 327.164,201.461 326.5,208.5C 325.265,208.721 324.265,209.388 323.5,210.5C 322.526,208.257 322.192,205.924 322.5,203.5C 318.13,204.512 313.797,204.512 309.5,203.5C 307.202,197.785 309.202,195.118 315.5,195.5 Z"/></g>
<g><path style="opacity:1" fill="#a2aebe" d="M 149.5,201.5 C 148.209,201.737 147.209,201.404 146.5,200.5C 148.176,199.817 148.843,198.483 148.5,196.5C 146.167,196.5 143.833,196.5 141.5,196.5C 141.232,198.099 141.566,199.432 142.5,200.5C 142.5,203.167 142.5,205.833 142.5,208.5C 141.732,207.737 141.232,206.737 141,205.5C 140.502,202.183 140.335,198.85 140.5,195.5C 143.5,195.5 146.5,195.5 149.5,195.5C 149.5,197.5 149.5,199.5 149.5,201.5 Z"/></g>
<g><path style="opacity:1" fill="#a6b3c4" d="M 156.5,205.5 C 156.5,205.167 156.5,204.833 156.5,204.5C 158.167,204.5 159.833,204.5 161.5,204.5C 161.5,201.833 161.5,199.167 161.5,196.5C 159.167,196.5 156.833,196.5 154.5,196.5C 154.5,198.833 154.5,201.167 154.5,203.5C 153.508,203.672 152.842,203.338 152.5,202.5C 153.468,200.393 153.802,198.059 153.5,195.5C 156.5,195.5 159.5,195.5 162.5,195.5C 162.5,198.833 162.5,202.167 162.5,205.5C 160.5,205.5 158.5,205.5 156.5,205.5 Z"/></g>
<g><path style="opacity:1" fill="#f2fafd" d="M 215.5,195.5 C 217.167,195.5 218.833,195.5 220.5,195.5C 220.5,198.167 220.5,200.833 220.5,203.5C 218.833,203.5 217.167,203.5 215.5,203.5C 215.5,200.833 215.5,198.167 215.5,195.5 Z"/></g>
<g><path style="opacity:1" fill="#d5dfe8" d="M 271.5,194.5 C 274.167,194.5 276.833,194.5 279.5,194.5C 279.5,197.833 279.5,201.167 279.5,204.5C 276.833,204.5 274.167,204.5 271.5,204.5C 271.5,201.167 271.5,197.833 271.5,194.5 Z"/></g>
<g><path style="opacity:1" fill="#f7fbfb" d="M 146.5,200.5 C 145.167,200.5 143.833,200.5 142.5,200.5C 141.566,199.432 141.232,198.099 141.5,196.5C 143.833,196.5 146.167,196.5 148.5,196.5C 148.843,198.483 148.176,199.817 146.5,200.5 Z"/></g>
<g><path style="opacity:1" fill="#f8fbfd" d="M 156.5,204.5 C 155.833,204.167 155.167,203.833 154.5,203.5C 154.5,201.167 154.5,198.833 154.5,196.5C 156.833,196.5 159.167,196.5 161.5,196.5C 161.5,199.167 161.5,201.833 161.5,204.5C 159.833,204.5 158.167,204.5 156.5,204.5 Z"/></g>
<g><path style="opacity:1" fill="#c8c0aa" d="M 391.5,194.5 C 397.158,193.679 398.825,195.846 396.5,201C 391.262,201.594 389.595,199.427 391.5,194.5 Z"/></g>
<g><path style="opacity:1" fill="#181f32" d="M 82.5,210.5 C 81.5,210.5 80.5,210.5 79.5,210.5C 77.9472,207.746 75.6139,206.913 72.5,208C 70.9262,209.826 70.0929,211.993 70,214.5C 68.9609,215.71 67.7942,216.71 66.5,217.5C 64.9829,215.064 65.3162,212.898 67.5,211C 66.4086,208.936 66.2419,206.769 67,204.5C 68.8333,203.333 70.3333,201.833 71.5,200C 73.8907,199.713 76.2241,199.213 78.5,198.5C 85.5981,201.416 87.4314,206.416 84,213.5C 83.7679,212.263 83.2679,211.263 82.5,210.5 Z"/></g>
<g><path style="opacity:1" fill="#bf8eb8" d="M 100.5,196.5 C 102.5,197.626 104.5,197.793 106.5,197C 105,199.167 103.167,201 101,202.5C 101.793,200.5 101.626,198.5 100.5,196.5 Z"/></g>
<g><path style="opacity:1" fill="#252131" d="M 142.5,200.5 C 143.833,200.5 145.167,200.5 146.5,200.5C 147.209,201.404 148.209,201.737 149.5,201.5C 150.391,202.11 151.391,202.443 152.5,202.5C 152.842,203.338 153.508,203.672 154.5,203.5C 155.167,203.833 155.833,204.167 156.5,204.5C 156.5,204.833 156.5,205.167 156.5,205.5C 156.5,207.5 156.5,209.5 156.5,211.5C 155.833,211.833 155.167,212.167 154.5,212.5C 154.167,212.5 153.833,212.5 153.5,212.5C 153.5,211.167 153.5,209.833 153.5,208.5C 149.833,208.5 146.167,208.5 142.5,208.5C 142.5,205.833 142.5,203.167 142.5,200.5 Z"/></g>
<g><path style="opacity:1" fill="#af786d" d="M 79.5,210.5 C 77.2362,209.781 74.9029,209.448 72.5,209.5C 72.0584,213.037 71.0584,216.37 69.5,219.5C 68.2905,219.068 67.2905,218.401 66.5,217.5C 67.7942,216.71 68.9609,215.71 70,214.5C 70.0929,211.993 70.9262,209.826 72.5,208C 75.6139,206.913 77.9472,207.746 79.5,210.5 Z"/></g>
<g><path style="opacity:1" fill="#afbccb" d="M 295.5,206.5 C 297.833,206.5 300.167,206.5 302.5,206.5C 302.5,210.167 302.5,213.833 302.5,217.5C 300.167,217.5 297.833,217.5 295.5,217.5C 295.5,213.833 295.5,210.167 295.5,206.5 Z"/></g>
<g><path style="opacity:1" fill="#b5bdcb" d="M 310.5,206.5 C 310.5,206.833 310.5,207.167 310.5,207.5C 309.167,207.5 307.833,207.5 306.5,207.5C 306.5,210.5 306.5,213.5 306.5,216.5C 308.167,216.5 309.833,216.5 311.5,216.5C 311.5,215.5 311.5,214.5 311.5,213.5C 312.404,214.209 312.737,215.209 312.5,216.5C 310.393,217.468 308.059,217.802 305.5,217.5C 305.5,213.833 305.5,210.167 305.5,206.5C 307.167,206.5 308.833,206.5 310.5,206.5 Z"/></g>
<g><path style="opacity:1" fill="#fafbfb" d="M 310.5,207.5 C 310.205,209.735 310.539,211.735 311.5,213.5C 311.5,214.5 311.5,215.5 311.5,216.5C 309.833,216.5 308.167,216.5 306.5,216.5C 306.5,213.5 306.5,210.5 306.5,207.5C 307.833,207.5 309.167,207.5 310.5,207.5 Z"/></g>
<g><path style="opacity:1" fill="#df8e74" d="M 142.5,208.5 C 146.167,208.5 149.833,208.5 153.5,208.5C 153.5,209.833 153.5,211.167 153.5,212.5C 152.596,213.209 152.263,214.209 152.5,215.5C 149.167,215.5 145.833,215.5 142.5,215.5C 142.5,213.167 142.5,210.833 142.5,208.5 Z"/></g>
<g><path style="opacity:1" fill="#bac8d8" d="M 173.5,198.5 C 175.833,198.5 178.167,198.5 180.5,198.5C 180.5,202.5 180.5,206.5 180.5,210.5C 178.167,210.5 175.833,210.5 173.5,210.5C 173.5,206.5 173.5,202.5 173.5,198.5 Z"/></g>
<g><path style="opacity:1" fill="#f7fcfd" d="M 174.5,199.5 C 176.167,199.5 177.833,199.5 179.5,199.5C 179.5,202.5 179.5,205.5 179.5,208.5C 177.833,208.5 176.167,208.5 174.5,208.5C 174.5,205.5 174.5,202.5 174.5,199.5 Z"/></g>
<g><path style="opacity:1" fill="#f5fcfd" d="M 296.5,207.5 C 298.167,207.5 299.833,207.5 301.5,207.5C 301.5,210.5 301.5,213.5 301.5,216.5C 299.833,216.5 298.167,216.5 296.5,216.5C 296.5,213.5 296.5,210.5 296.5,207.5 Z"/></g>
<g><path style="opacity:1" fill="#aebccc" d="M 356.5,206.5 C 358.527,206.338 360.527,206.505 362.5,207C 360.866,207.494 359.199,207.66 357.5,207.5C 357.5,210.5 357.5,213.5 357.5,216.5C 359.199,216.34 360.866,216.506 362.5,217C 360.527,217.495 358.527,217.662 356.5,217.5C 356.5,213.833 356.5,210.167 356.5,206.5 Z"/></g>
<g><path style="opacity:1" fill="#de8d73" d="M 309.5,203.5 C 313.797,204.512 318.13,204.512 322.5,203.5C 322.192,205.924 322.526,208.257 323.5,210.5C 324.265,209.388 325.265,208.721 326.5,208.5C 324.738,211.81 323.738,215.476 323.5,219.5C 323.217,225.263 320.384,226.93 315,224.5C 314.51,223.207 314.343,221.873 314.5,220.5C 314.843,218.517 314.176,217.183 312.5,216.5C 312.737,215.209 312.404,214.209 311.5,213.5C 310.539,211.735 310.205,209.735 310.5,207.5C 310.5,207.167 310.5,206.833 310.5,206.5C 310.443,205.391 310.11,204.391 309.5,203.5 Z"/></g>
<g><path style="opacity:1" fill="#d09c8c" d="M 156.5,211.5 C 157.218,213.137 157.384,214.803 157,216.5C 156.329,217.252 155.496,217.586 154.5,217.5C 154.5,215.833 154.5,214.167 154.5,212.5C 155.167,212.167 155.833,211.833 156.5,211.5 Z"/></g>
<g><path style="opacity:1" fill="#fdede1" d="M 317.5,211.5 C 318.774,212.189 318.774,213.023 317.5,214C 316.365,214.749 315.365,214.583 314.5,213.5C 315.602,212.824 316.602,212.158 317.5,211.5 Z"/></g>
<g><path style="opacity:1" fill="#c4d6e5" d="M 126.5,233.5 C 126.417,227.958 126.417,222.292 126.5,216.5C 125.522,216.977 124.689,217.643 124,218.5C 123.447,225.2 123.78,231.867 125,238.5C 125.199,240.402 126.033,241.902 127.5,243C 127,243.5 126.5,244 126,244.5C 122.677,242.071 121.843,239.071 123.5,235.5C 123.226,229.622 122.059,223.955 120,218.5C 119.667,218.167 119.333,217.833 119,217.5C 118.833,218.333 118.667,219.167 118.5,220C 119.345,224.461 119.678,228.961 119.5,233.5C 118.127,233.657 116.793,233.49 115.5,233C 113.826,229.481 111.159,227.315 107.5,226.5C 106.829,225.291 108.162,225.124 111.5,226C 113.393,228.303 115.393,230.47 117.5,232.5C 117.833,231.333 118.167,230.167 118.5,229C 117.077,223.562 116.577,218.062 117,212.5C 117.833,211.667 118.667,210.833 119.5,210C 125.522,209.676 128.856,212.676 129.5,219C 128.027,223.764 127.027,228.597 126.5,233.5 Z"/></g>
<g><path style="opacity:1" fill="#221f30" d="M 153.5,212.5 C 153.665,215.518 153.498,218.518 153,221.5C 151.254,223.457 149.088,224.457 146.5,224.5C 146.167,224.5 145.833,224.5 145.5,224.5C 144.542,224.047 143.708,223.381 143,222.5C 142.503,220.19 142.337,217.857 142.5,215.5C 145.833,215.5 149.167,215.5 152.5,215.5C 152.263,214.209 152.596,213.209 153.5,212.5 Z"/></g>
<g><path style="opacity:1" fill="#e18c71" d="M 79.5,210.5 C 80.5,210.5 81.5,210.5 82.5,210.5C 82.6655,214.514 82.4988,218.514 82,222.5C 80.5187,223.471 79.6854,224.804 79.5,226.5C 79.5,226.833 79.5,227.167 79.5,227.5C 78.2003,228.108 76.8669,228.775 75.5,229.5C 74.8333,229.167 74.1667,228.833 73.5,228.5C 72.4844,225.718 71.4844,223.051 70.5,220.5C 69.8333,220.5 69.5,220.167 69.5,219.5C 71.0584,216.37 72.0584,213.037 72.5,209.5C 74.9029,209.448 77.2362,209.781 79.5,210.5 Z"/></g>
<g><path style="opacity:1" fill="#f9e6d9" d="M 75.5,218.5 C 77.1667,218.5 78.8333,218.5 80.5,218.5C 80.5,219.5 80.5,220.5 80.5,221.5C 77.715,222.084 76.0483,221.084 75.5,218.5 Z"/></g>
<g><path style="opacity:1" fill="#c8ccd3" d="M 147.5,217.5 C 148.404,218.209 148.737,219.209 148.5,220.5C 143.725,220.33 143.392,219.33 147.5,217.5 Z"/></g>
<g><path style="opacity:1" fill="#d0a5a6" d="M 323.5,219.5 C 324.167,219.5 324.5,219.833 324.5,220.5C 324.498,225.332 321.998,227.666 317,227.5C 314.007,226.8 312.507,224.8 312.5,221.5C 312.842,220.662 313.508,220.328 314.5,220.5C 314.343,221.873 314.51,223.207 315,224.5C 320.384,226.93 323.217,225.263 323.5,219.5 Z"/></g>
<g><path style="opacity:1" fill="#f9fafa" d="M 390.5,303.5 C 389.829,304.847 389.829,306.014 390.5,307C 389.833,307.333 389.167,307.667 388.5,308C 389.672,308.419 390.672,309.085 391.5,310C 388.823,310.168 386.49,311.001 384.5,312.5C 384.821,306.974 384.488,301.64 383.5,296.5C 382.5,295.167 381.5,293.833 380.5,292.5C 380.777,289.552 380.444,286.719 379.5,284C 380.833,284 382.167,284 383.5,284C 382.095,282.731 380.429,282.231 378.5,282.5C 376.197,280.033 373.697,277.7 371,275.5C 370.601,275.728 370.435,276.062 370.5,276.5C 365.985,274.439 361.319,272.773 356.5,271.5C 352.115,269.319 347.448,267.653 342.5,266.5C 340.57,262.627 339.903,258.294 340.5,253.5C 349.167,253.5 357.833,253.5 366.5,253.5C 366.5,251.167 366.5,248.833 366.5,246.5C 358.16,246.334 349.827,246.5 341.5,247C 349.493,247.5 357.493,247.666 365.5,247.5C 365.5,249.167 365.5,250.833 365.5,252.5C 357.167,252.5 348.833,252.5 340.5,252.5C 340.5,249.5 340.5,246.5 340.5,243.5C 349.167,243.5 357.833,243.5 366.5,243.5C 366.5,241.167 366.5,238.833 366.5,236.5C 357.167,236.5 347.833,236.5 338.5,236.5C 335.183,236.157 332.849,237.491 331.5,240.5C 333.693,247.35 334.527,254.35 334,261.5C 332.556,263.155 330.722,263.822 328.5,263.5C 328.5,263.167 328.5,262.833 328.5,262.5C 329.302,254.578 329.802,246.578 330,238.5C 332.352,236.97 334.519,235.303 336.5,233.5C 346.5,233.5 356.5,233.5 366.5,233.5C 366.5,231.167 366.5,228.833 366.5,226.5C 354.833,226.5 343.167,226.5 331.5,226.5C 330.833,225.5 330.167,224.5 329.5,223.5C 348.659,222.503 367.993,222.17 387.5,222.5C 388.285,226.596 387.118,229.93 384,232.5C 383.833,234.167 383.667,235.833 383.5,237.5C 384.359,242.227 385.526,246.893 387,251.5C 387.667,249.5 387.667,247.5 387,245.5C 384.826,242.454 384.159,239.12 385,235.5C 386,236.167 387,236.833 388,237.5C 388.831,244.856 388.665,252.189 387.5,259.5C 383.455,258.24 380.288,255.907 378,252.5C 375.032,256.005 375.365,259.338 379,262.5C 379.617,261.551 379.451,260.718 378.5,260C 382.145,259.741 384.978,261.241 387,264.5C 387.582,268.824 388.082,273.157 388.5,277.5C 387.537,280.897 386.87,284.064 386.5,287C 387.149,292.769 388.482,298.269 390.5,303.5 Z"/></g>
<g><path style="opacity:1" fill="#8e5b53" d="M 153.5,212.5 C 153.833,212.5 154.167,212.5 154.5,212.5C 154.5,214.167 154.5,215.833 154.5,217.5C 154.5,219.833 154.5,222.167 154.5,224.5C 152.772,225.379 150.939,226.046 149,226.5C 147.624,226.316 146.791,225.649 146.5,224.5C 149.088,224.457 151.254,223.457 153,221.5C 153.498,218.518 153.665,215.518 153.5,212.5 Z"/></g>
<g><path style="opacity:1" fill="#482b25" d="M 292.5,222.5 C 293.167,222.5 293.833,222.5 294.5,222.5C 296.008,224.181 297.008,226.181 297.5,228.5C 296.711,228.217 296.044,227.717 295.5,227C 292.975,226.856 290.642,226.69 288.5,226.5C 288.488,223.858 289.821,222.525 292.5,222.5 Z"/></g>
<g><path style="opacity:1" fill="#1d1c2f" d="M 210.5,224.5 C 210.842,225.338 211.508,225.672 212.5,225.5C 212.5,225.833 212.5,226.167 212.5,226.5C 213.686,228.792 213.686,231.126 212.5,233.5C 212.5,234.167 212.5,234.833 212.5,235.5C 213.611,240.525 211.944,244.192 207.5,246.5C 206.833,246.5 206.167,246.5 205.5,246.5C 207.087,244.03 208.587,241.364 210,238.5C 210.667,237.167 210.667,235.833 210,234.5C 208.414,233.624 206.914,232.624 205.5,231.5C 203.816,234.678 201.149,236.345 197.5,236.5C 196.876,236.917 196.543,237.584 196.5,238.5C 198.049,240.902 198.716,243.568 198.5,246.5C 196.801,246.34 195.134,246.506 193.5,247C 192.837,248.518 191.837,249.685 190.5,250.5C 190.5,245.833 190.5,241.167 190.5,236.5C 190.5,236.167 190.5,235.833 190.5,235.5C 192.5,233.167 194.5,230.833 196.5,228.5C 200.593,225.36 205.26,224.027 210.5,224.5 Z"/></g>
<g><path style="opacity:1" fill="#a5b4c6" d="M 331.5,226.5 C 343.167,226.5 354.833,226.5 366.5,226.5C 366.5,228.833 366.5,231.167 366.5,233.5C 356.5,233.5 346.5,233.5 336.5,233.5C 336.5,233.167 336.5,232.833 336.5,232.5C 346.167,232.5 355.833,232.5 365.5,232.5C 365.5,230.833 365.5,229.167 365.5,227.5C 354.5,227.5 343.5,227.5 332.5,227.5C 331.833,227.5 331.5,227.167 331.5,226.5 Z"/></g>
<g><path style="opacity:1" fill="#5c7ec5" d="M 324.5,220.5 C 325.609,220.557 326.609,220.89 327.5,221.5C 327.5,221.833 327.5,222.167 327.5,222.5C 328.584,226.499 330.584,229.999 333.5,233C 332.333,234.833 330.833,236.333 329,237.5C 328.5,245.159 328.334,252.826 328.5,260.5C 322.167,260.5 315.833,260.5 309.5,260.5C 309.826,252.316 309.492,244.316 308.5,236.5C 307.833,236.5 307.167,236.5 306.5,236.5C 306.569,230.605 308.569,225.605 312.5,221.5C 312.507,224.8 314.007,226.8 317,227.5C 321.998,227.666 324.498,225.332 324.5,220.5 Z"/></g>
<g><path style="opacity:1" fill="#b68c5e" d="M 212.5,226.5 C 213.167,226.5 213.833,226.5 214.5,226.5C 214.5,228.167 214.5,229.833 214.5,231.5C 216.231,239.929 216.564,248.262 215.5,256.5C 213.901,256.768 212.568,256.434 211.5,255.5C 212.833,255.5 214.167,255.5 215.5,255.5C 215.392,248.476 214.892,241.476 214,234.5C 213.617,233.944 213.117,233.611 212.5,233.5C 213.686,231.126 213.686,228.792 212.5,226.5 Z"/></g>
<g><path style="opacity:1" fill="#f6fbfd" d="M 332.5,227.5 C 343.5,227.5 354.5,227.5 365.5,227.5C 365.5,229.167 365.5,230.833 365.5,232.5C 355.833,232.5 346.167,232.5 336.5,232.5C 334.937,231.055 333.604,229.389 332.5,227.5 Z"/></g>
<g><path style="opacity:1" fill="#d18a8b" d="M 70.5,220.5 C 71.4844,223.051 72.4844,225.718 73.5,228.5C 74.1667,228.833 74.8333,229.167 75.5,229.5C 76.8669,228.775 78.2003,228.108 79.5,227.5C 79.8453,230.488 78.512,231.821 75.5,231.5C 72.7225,230.946 71.0558,229.279 70.5,226.5C 70.5,224.5 70.5,222.5 70.5,220.5 Z"/></g>
<g><path style="opacity:1" fill="#ed9f47" d="M 214.5,226.5 C 228.673,226.818 242.673,228.818 256.5,232.5C 256.703,234.044 257.37,235.378 258.5,236.5C 258.376,237.107 258.043,237.44 257.5,237.5C 251.872,235.982 246.205,234.649 240.5,233.5C 239.048,232.698 237.382,232.198 235.5,232C 228.508,231.5 221.508,231.334 214.5,231.5C 214.5,229.833 214.5,228.167 214.5,226.5 Z"/></g>
<g><path style="opacity:1" fill="#c98334" d="M 214.5,231.5 C 221.508,231.334 228.508,231.5 235.5,232C 237.382,232.198 239.048,232.698 240.5,233.5C 234.516,232.926 228.516,232.593 222.5,232.5C 222.111,235.553 222.777,238.22 224.5,240.5C 224.5,241.167 224.5,241.833 224.5,242.5C 225.232,246.787 226.565,250.787 228.5,254.5C 228.5,255.167 228.5,255.833 228.5,256.5C 228.5,256.833 228.5,257.167 228.5,257.5C 224.167,257.5 219.833,257.5 215.5,257.5C 215.5,257.167 215.5,256.833 215.5,256.5C 216.564,248.262 216.231,239.929 214.5,231.5 Z"/></g>
<g><path style="opacity:1" fill="#b08a64" d="M 240.5,233.5 C 246.205,234.649 251.872,235.982 257.5,237.5C 257.833,238.167 258.167,238.833 258.5,239.5C 250.145,236.7 241.478,235.033 232.5,234.5C 229.428,234.183 226.428,234.516 223.5,235.5C 224.309,237.071 224.643,238.738 224.5,240.5C 222.777,238.22 222.111,235.553 222.5,232.5C 228.516,232.593 234.516,232.926 240.5,233.5 Z"/></g>
<g><path style="opacity:1" fill="#c6826d" d="M 288.5,226.5 C 290.642,226.69 292.975,226.856 295.5,227C 296.044,227.717 296.711,228.217 297.5,228.5C 298.167,228.5 298.5,228.833 298.5,229.5C 298.095,232.596 296.428,234.929 293.5,236.5C 295.718,237.057 298.051,237.057 300.5,236.5C 301.815,237.476 303.148,238.476 304.5,239.5C 305.176,238.398 305.842,237.398 306.5,236.5C 307.167,236.5 307.833,236.5 308.5,236.5C 308.5,240.5 308.5,244.5 308.5,248.5C 302.63,247.899 297.963,245.233 294.5,240.5C 294.167,239.5 293.5,238.833 292.5,238.5C 291.969,236.456 290.802,234.789 289,233.5C 288.503,231.19 288.337,228.857 288.5,226.5 Z"/></g>
<g><path style="opacity:1" fill="#4a281f" d="M 298.5,229.5 C 299.566,231.701 300.233,234.035 300.5,236.5C 298.051,237.057 295.718,237.057 293.5,236.5C 296.428,234.929 298.095,232.596 298.5,229.5 Z"/></g>
<g><path style="opacity:1" fill="#ebf4f7" d="M 126.5,233.5 C 126.62,234.586 127.287,235.253 128.5,235.5C 131.475,233.917 134.142,234.25 136.5,236.5C 135.586,239.356 133.919,241.856 131.5,244C 127.12,246.516 122.453,248.35 117.5,249.5C 117.649,248.448 117.483,247.448 117,246.5C 112.946,242.446 108.946,238.446 105,234.5C 105.141,232.538 104.974,230.704 104.5,229C 104.833,228.5 105.167,228 105.5,227.5C 106.944,228.981 107.611,228.648 107.5,226.5C 111.159,227.315 113.826,229.481 115.5,233C 116.793,233.49 118.127,233.657 119.5,233.5C 119.678,228.961 119.345,224.461 118.5,220C 118.667,219.167 118.833,218.333 119,217.5C 119.333,217.833 119.667,218.167 120,218.5C 122.059,223.955 123.226,229.622 123.5,235.5C 121.843,239.071 122.677,242.071 126,244.5C 126.5,244 127,243.5 127.5,243C 126.033,241.902 125.199,240.402 125,238.5C 123.78,231.867 123.447,225.2 124,218.5C 124.689,217.643 125.522,216.977 126.5,216.5C 126.417,222.292 126.417,227.958 126.5,233.5 Z"/></g>
<g><path style="opacity:1" fill="#ee9d42" d="M 196.5,228.5 C 194.5,230.833 192.5,233.167 190.5,235.5C 188.473,235.338 186.473,235.505 184.5,236C 179.289,238.008 173.956,239.841 168.5,241.5C 167.37,239.685 166.704,237.685 166.5,235.5C 166.5,234.833 166.833,234.5 167.5,234.5C 167.833,234.5 168.167,234.5 168.5,234.5C 177.539,231.241 186.872,229.241 196.5,228.5 Z"/></g>
<g><path style="opacity:1" fill="#dc8c78" d="M 205.5,246.5 C 203.61,249.002 201.61,249.002 199.5,246.5C 199.845,242.885 199.178,239.552 197.5,236.5C 201.149,236.345 203.816,234.678 205.5,231.5C 206.914,232.624 208.414,233.624 210,234.5C 210.667,235.833 210.667,237.167 210,238.5C 208.587,241.364 207.087,244.03 205.5,246.5 Z"/></g>
<g><path style="opacity:1" fill="#99b3d1" d="M 232.5,234.5 C 241.478,235.033 250.145,236.7 258.5,239.5C 264.687,241.488 270.021,244.988 274.5,250C 273.456,251.174 272.456,252.341 271.5,253.5C 261.805,247.074 251.138,243.408 239.5,242.5C 237.177,239.874 234.843,237.207 232.5,234.5 Z"/></g>
<g><path style="opacity:1" fill="#f5fafb" d="M 338.5,237.5 C 347.5,237.5 356.5,237.5 365.5,237.5C 365.5,239.167 365.5,240.833 365.5,242.5C 357.167,242.5 348.833,242.5 340.5,242.5C 339.463,241.07 338.796,239.403 338.5,237.5 Z"/></g>
<g><path style="opacity:1" fill="#99b3d1" d="M 190.5,236.5 C 190.5,241.167 190.5,245.833 190.5,250.5C 189.833,250.5 189.5,250.833 189.5,251.5C 186.698,248.524 184.031,245.358 181.5,242C 177.624,241.425 173.958,241.925 170.5,243.5C 176.77,240.279 183.437,237.946 190.5,236.5 Z"/></g>
<g><path style="opacity:1" fill="#e28d70" d="M 338.5,236.5 C 338.5,236.833 338.5,237.167 338.5,237.5C 338.796,239.403 339.463,241.07 340.5,242.5C 340.5,242.833 340.5,243.167 340.5,243.5C 340.5,246.5 340.5,249.5 340.5,252.5C 340.5,252.833 340.5,253.167 340.5,253.5C 339.903,258.294 340.57,262.627 342.5,266.5C 342.5,267.167 342.167,267.5 341.5,267.5C 337.26,268.484 333.427,267.484 330,264.5C 329.066,265.858 328.232,267.192 327.5,268.5C 327.366,266.708 327.699,265.042 328.5,263.5C 330.722,263.822 332.556,263.155 334,261.5C 334.527,254.35 333.693,247.35 331.5,240.5C 332.849,237.491 335.183,236.157 338.5,236.5 Z"/></g>
<g><path style="opacity:1" fill="#c48d4e" d="M 256.5,232.5 C 257.167,232.833 257.833,233.167 258.5,233.5C 259.716,235.451 261.382,236.951 263.5,238C 270.65,241.072 277.316,244.906 283.5,249.5C 282.167,249.5 280.833,249.5 279.5,249.5C 279.67,250.822 279.337,251.989 278.5,253C 276.08,253.29 273.746,253.79 271.5,254.5C 271.5,254.167 271.5,253.833 271.5,253.5C 272.456,252.341 273.456,251.174 274.5,250C 270.021,244.988 264.687,241.488 258.5,239.5C 258.167,238.833 257.833,238.167 257.5,237.5C 258.043,237.44 258.376,237.107 258.5,236.5C 257.37,235.378 256.703,234.044 256.5,232.5 Z"/></g>
<g><path style="opacity:1" fill="#ad8b67" d="M 190.5,235.5 C 190.5,235.833 190.5,236.167 190.5,236.5C 183.437,237.946 176.77,240.279 170.5,243.5C 169.167,243.5 168.5,242.833 168.5,241.5C 173.956,239.841 179.289,238.008 184.5,236C 186.473,235.505 188.473,235.338 190.5,235.5 Z"/></g>
<g><path style="opacity:1" fill="#80a5d9" d="M 232.5,234.5 C 234.843,237.207 237.177,239.874 239.5,242.5C 243.296,246.798 247.296,250.964 251.5,255C 243.811,255.647 236.144,255.48 228.5,254.5C 228.219,250.812 227.719,247.145 227,243.5C 226.329,242.748 225.496,242.414 224.5,242.5C 224.5,241.833 224.5,241.167 224.5,240.5C 224.643,238.738 224.309,237.071 223.5,235.5C 226.428,234.516 229.428,234.183 232.5,234.5 Z"/></g>
<g><path style="opacity:1" fill="#89434c" d="M 197.5,236.5 C 199.178,239.552 199.845,242.885 199.5,246.5C 199.167,246.5 198.833,246.5 198.5,246.5C 198.716,243.568 198.049,240.902 196.5,238.5C 196.543,237.584 196.876,236.917 197.5,236.5 Z"/></g>
<g><path style="opacity:1" fill="#b3c4e4" d="M 212.5,235.5 C 213.165,238.482 213.498,241.648 213.5,245C 213.485,248.576 212.818,251.742 211.5,254.5C 210.167,251.833 208.833,249.167 207.5,246.5C 211.944,244.192 213.611,240.525 212.5,235.5 Z"/></g>
<g><path style="opacity:1" fill="#acb9c9" d="M 338.5,237.5 C 338.5,237.167 338.5,236.833 338.5,236.5C 347.833,236.5 357.167,236.5 366.5,236.5C 366.5,238.833 366.5,241.167 366.5,243.5C 357.833,243.5 349.167,243.5 340.5,243.5C 340.5,243.167 340.5,242.833 340.5,242.5C 348.833,242.5 357.167,242.5 365.5,242.5C 365.5,240.833 365.5,239.167 365.5,237.5C 356.5,237.5 347.5,237.5 338.5,237.5 Z"/></g>
<g><path style="opacity:1" fill="#afcce6" d="M 239.5,242.5 C 251.138,243.408 261.805,247.074 271.5,253.5C 271.5,253.833 271.5,254.167 271.5,254.5C 270.549,255.919 270.216,257.585 270.5,259.5C 266.519,258.979 262.519,258.646 258.5,258.5C 257.048,257.698 255.382,257.198 253.5,257C 245.173,256.5 236.84,256.334 228.5,256.5C 228.5,255.833 228.5,255.167 228.5,254.5C 236.144,255.48 243.811,255.647 251.5,255C 247.296,250.964 243.296,246.798 239.5,242.5 Z"/></g>
<g><path style="opacity:1" fill="#533296" d="M 70.5,226.5 C 71.0558,229.279 72.7225,230.946 75.5,231.5C 78.512,231.821 79.8453,230.488 79.5,227.5C 79.5,227.167 79.5,226.833 79.5,226.5C 81.7547,227.215 83.5881,228.548 85,230.5C 85.499,234.821 85.6657,239.154 85.5,243.5C 84.3195,245.693 83.3195,248.026 82.5,250.5C 82.8333,251.5 83.5,252.167 84.5,252.5C 85.1671,256.313 85.8337,259.979 86.5,263.5C 86.5,264.5 86.5,265.5 86.5,266.5C 86.5,267.5 86.5,268.5 86.5,269.5C 86.5,270.5 86.5,271.5 86.5,272.5C 78.8333,272.5 71.1667,272.5 63.5,272.5C 64.2662,257.858 64.7662,243.191 65,228.5C 66.4443,226.845 68.2776,226.178 70.5,226.5 Z"/></g>
<g><path style="opacity:1" fill="#bcccd8" d="M 258.5,233.5 C 270.238,237.619 281.405,242.952 292,249.5C 292.499,245.848 292.665,242.182 292.5,238.5C 293.5,238.833 294.167,239.5 294.5,240.5C 293.359,243.64 293.192,246.973 294,250.5C 298.162,252.819 301.995,255.486 305.5,258.5C 302.482,258.665 299.482,258.498 296.5,258C 291.796,255.654 287.463,252.82 283.5,249.5C 277.316,244.906 270.65,241.072 263.5,238C 261.382,236.951 259.716,235.451 258.5,233.5 Z"/></g>
<g><path style="opacity:1" fill="#f9fafa" d="M 294.5,240.5 C 297.963,245.233 302.63,247.899 308.5,248.5C 308.5,252.167 308.5,255.833 308.5,259.5C 307.609,258.89 306.609,258.557 305.5,258.5C 301.995,255.486 298.162,252.819 294,250.5C 293.192,246.973 293.359,243.64 294.5,240.5 Z"/></g>
<g><path style="opacity:1" fill="#7da4d8" d="M 189.5,251.5 C 189.5,252.167 189.5,252.833 189.5,253.5C 183.178,252.986 176.845,252.653 170.5,252.5C 170.5,249.5 170.5,246.5 170.5,243.5C 173.958,241.925 177.624,241.425 181.5,242C 184.031,245.358 186.698,248.524 189.5,251.5 Z"/></g>
<g><path style="opacity:1" fill="#e58e71" d="M 114.5,257.5 C 114.389,258.117 114.056,258.617 113.5,259C 110.5,259.667 107.5,259.667 104.5,259C 103.619,258.292 102.953,257.458 102.5,256.5C 96.7471,254.138 90.7471,252.138 84.5,250.5C 85.4525,248.488 87.1191,247.488 89.5,247.5C 93.7462,247.973 97.7462,249.139 101.5,251C 105.5,251.333 109.5,251.667 113.5,252C 114.406,253.699 114.739,255.533 114.5,257.5 Z"/></g>
<g><path style="opacity:1" fill="#e43681" d="M 198.5,246.5 C 198.833,246.5 199.167,246.5 199.5,246.5C 201.61,249.002 203.61,249.002 205.5,246.5C 206.167,246.5 206.833,246.5 207.5,246.5C 208.833,249.167 210.167,251.833 211.5,254.5C 207.154,254.334 202.821,254.501 198.5,255C 197.3,258.765 198.634,261.265 202.5,262.5C 203.958,264.011 205.791,265.011 208,265.5C 207.981,267.107 207.815,268.774 207.5,270.5C 206.5,270.5 205.5,270.5 204.5,270.5C 195.321,268.99 190.321,263.657 189.5,254.5C 189.5,254.167 189.5,253.833 189.5,253.5C 189.5,252.833 189.5,252.167 189.5,251.5C 189.5,250.833 189.833,250.5 190.5,250.5C 191.837,249.685 192.837,248.518 193.5,247C 195.134,246.506 196.801,246.34 198.5,246.5 Z"/></g>
<g><path style="opacity:1" fill="#bec4c6" d="M 212.5,233.5 C 213.117,233.611 213.617,233.944 214,234.5C 214.892,241.476 215.392,248.476 215.5,255.5C 214.167,255.5 212.833,255.5 211.5,255.5C 211.5,255.167 211.5,254.833 211.5,254.5C 212.818,251.742 213.485,248.576 213.5,245C 213.498,241.648 213.165,238.482 212.5,235.5C 212.5,234.833 212.5,234.167 212.5,233.5 Z"/></g>
<g><path style="opacity:1" fill="#a19ca0" d="M 224.5,242.5 C 225.496,242.414 226.329,242.748 227,243.5C 227.719,247.145 228.219,250.812 228.5,254.5C 226.565,250.787 225.232,246.787 224.5,242.5 Z"/></g>
<g><path style="opacity:1" fill="#cf9186" d="M 85.5,243.5 C 91.6918,246.342 98.1918,248.342 105,249.5C 108.311,248.283 111.477,248.617 114.5,250.5C 116.168,252.479 116.834,254.812 116.5,257.5C 115.833,257.5 115.167,257.5 114.5,257.5C 114.739,255.533 114.406,253.699 113.5,252C 109.5,251.667 105.5,251.333 101.5,251C 97.7462,249.139 93.7462,247.973 89.5,247.5C 87.1191,247.488 85.4525,248.488 84.5,250.5C 90.7471,252.138 96.7471,254.138 102.5,256.5C 97.0929,255.921 91.7596,254.921 86.5,253.5C 86.5,256.833 86.5,260.167 86.5,263.5C 85.8337,259.979 85.1671,256.313 84.5,252.5C 83.5,252.167 82.8333,251.5 82.5,250.5C 83.3195,248.026 84.3195,245.693 85.5,243.5 Z"/></g>
<g><path style="opacity:1" fill="#ce883b" d="M 283.5,249.5 C 287.463,252.82 291.796,255.654 296.5,258C 299.482,258.498 302.482,258.665 305.5,258.5C 306.609,258.557 307.609,258.89 308.5,259.5C 308.5,271.167 308.5,282.833 308.5,294.5C 308.5,294.833 308.5,295.167 308.5,295.5C 308.167,295.5 307.833,295.5 307.5,295.5C 307.5,294.167 307.5,292.833 307.5,291.5C 307.5,281.5 307.5,271.5 307.5,261.5C 302.175,261.057 297.008,259.723 292,257.5C 291.5,257.667 291,257.833 290.5,258C 291.79,260.292 293.457,262.292 295.5,264C 294.552,264.483 293.552,264.649 292.5,264.5C 285.401,262.426 278.068,261.426 270.5,261.5C 264.335,260.881 258.169,260.215 252,259.5C 249.705,259.453 247.871,258.787 246.5,257.5C 250.466,258.162 254.466,258.495 258.5,258.5C 262.519,258.646 266.519,258.979 270.5,259.5C 270.216,257.585 270.549,255.919 271.5,254.5C 273.746,253.79 276.08,253.29 278.5,253C 279.337,251.989 279.67,250.822 279.5,249.5C 280.833,249.5 282.167,249.5 283.5,249.5 Z"/></g>
<g><path style="opacity:1" fill="#b1becd" d="M 340.5,253.5 C 340.5,253.167 340.5,252.833 340.5,252.5C 348.833,252.5 357.167,252.5 365.5,252.5C 365.5,250.833 365.5,249.167 365.5,247.5C 357.493,247.666 349.493,247.5 341.5,247C 349.827,246.5 358.16,246.334 366.5,246.5C 366.5,248.833 366.5,251.167 366.5,253.5C 357.833,253.5 349.167,253.5 340.5,253.5 Z"/></g>
<g><path style="opacity:1" fill="#9ca1af" d="M 170.5,253.5 C 170.5,253.167 170.5,252.833 170.5,252.5C 176.845,252.653 183.178,252.986 189.5,253.5C 189.5,253.833 189.5,254.167 189.5,254.5C 183.149,254.443 176.815,254.11 170.5,253.5 Z"/></g>
<g><path style="opacity:1" fill="#b38757" d="M 170.5,253.5 C 176.815,254.11 183.149,254.443 189.5,254.5C 183.355,255.49 177.022,255.823 170.5,255.5C 170.5,254.833 170.5,254.167 170.5,253.5 Z"/></g>
<g><path style="opacity:1" fill="#e48551" d="M 211.5,254.5 C 211.5,254.833 211.5,255.167 211.5,255.5C 212.568,256.434 213.901,256.768 215.5,256.5C 215.5,256.833 215.5,257.167 215.5,257.5C 210.125,257.172 204.792,257.505 199.5,258.5C 200.524,259.852 201.524,261.185 202.5,262.5C 198.634,261.265 197.3,258.765 198.5,255C 202.821,254.501 207.154,254.334 211.5,254.5 Z"/></g>
<g><path style="opacity:1" fill="#b28e69" d="M 228.5,257.5 C 228.5,257.167 228.5,256.833 228.5,256.5C 236.84,256.334 245.173,256.5 253.5,257C 255.382,257.198 257.048,257.698 258.5,258.5C 254.466,258.495 250.466,258.162 246.5,257.5C 240.5,257.5 234.5,257.5 228.5,257.5 Z"/></g>
<g><path style="opacity:1" fill="#d4dfe6" d="M 102.5,256.5 C 102.953,257.458 103.619,258.292 104.5,259C 107.5,259.667 110.5,259.667 113.5,259C 114.056,258.617 114.389,258.117 114.5,257.5C 115.167,257.5 115.833,257.5 116.5,257.5C 118.117,256.962 119.784,256.629 121.5,256.5C 125.179,256.276 128.846,255.942 132.5,255.5C 132.5,255.833 132.5,256.167 132.5,256.5C 128.594,257.61 124.594,258.443 120.5,259C 119.748,259.671 119.414,260.504 119.5,261.5C 119.144,263.19 118.144,264.19 116.5,264.5C 115.942,263.21 114.942,262.377 113.5,262C 109.514,261.501 105.514,261.334 101.5,261.5C 101.5,260.167 101.5,258.833 101.5,257.5C 97.5,257.5 93.5,257.5 89.5,257.5C 89.3961,262.306 90.0628,266.972 91.5,271.5C 92.5,271.5 93.5,271.5 94.5,271.5C 106.395,282.72 106.062,283.053 93.5,272.5C 92.5344,274.396 92.2011,276.396 92.5,278.5C 91.596,279.209 91.2627,280.209 91.5,281.5C 90.1667,281.5 88.8333,281.5 87.5,281.5C 87.5,280.5 87.5,279.5 87.5,278.5C 88.5,278.5 89.5,278.5 90.5,278.5C 91.2602,273.566 89.9269,269.566 86.5,266.5C 86.5,265.5 86.5,264.5 86.5,263.5C 86.5,260.167 86.5,256.833 86.5,253.5C 91.7596,254.921 97.0929,255.921 102.5,256.5 Z"/></g>
<g><path style="opacity:1" fill="#c5e7f5" d="M 116.5,264.5 C 115.37,266.315 114.704,268.315 114.5,270.5C 112.953,271.768 111.953,273.435 111.5,275.5C 108.657,274.828 106.157,273.495 104,271.5C 103.667,272.167 103.333,272.833 103,273.5C 101.022,267.793 98.1889,267.126 94.5,271.5C 93.5,271.5 92.5,271.5 91.5,271.5C 90.0628,266.972 89.3961,262.306 89.5,257.5C 93.5,257.5 97.5,257.5 101.5,257.5C 101.5,258.833 101.5,260.167 101.5,261.5C 105.514,261.334 109.514,261.501 113.5,262C 114.942,262.377 115.942,263.21 116.5,264.5 Z"/></g>
<g><path style="opacity:1" fill="#c49159" d="M 132.5,256.5 C 128.364,258.62 124.031,260.286 119.5,261.5C 119.414,260.504 119.748,259.671 120.5,259C 124.594,258.443 128.594,257.61 132.5,256.5 Z"/></g>
<g><path style="opacity:1" fill="#f69c38" d="M 137.5,255.5 C 137.667,268.504 137.5,281.504 137,294.5C 135.812,295.563 135.312,296.897 135.5,298.5C 135.34,300.153 134.674,301.486 133.5,302.5C 132.883,302.611 132.383,302.944 132,303.5C 131.502,306.817 131.335,310.15 131.5,313.5C 125.115,313.133 118.781,312.466 112.5,311.5C 112.174,309.339 111.174,307.506 109.5,306C 109.957,305.586 110.291,305.086 110.5,304.5C 108.979,304.12 107.313,303.954 105.5,304C 107.002,301.426 108.002,298.593 108.5,295.5C 116.36,297.641 119.36,294.641 117.5,286.5C 118.194,281.195 118.528,275.862 118.5,270.5C 117.5,270.5 116.5,270.5 115.5,270.5C 115.167,270.5 114.833,270.5 114.5,270.5C 114.704,268.315 115.37,266.315 116.5,264.5C 118.144,264.19 119.144,263.19 119.5,261.5C 124.031,260.286 128.364,258.62 132.5,256.5C 134.117,255.962 135.784,255.629 137.5,255.5 Z"/></g>
<g><path style="opacity:1" fill="#a7a778" d="M 138.5,253.5 C 139.49,259.31 139.823,265.31 139.5,271.5C 138.833,266.167 138.167,260.833 137.5,255.5C 135.784,255.629 134.117,255.962 132.5,256.5C 132.5,256.167 132.5,255.833 132.5,255.5C 134.421,254.637 136.421,253.971 138.5,253.5 Z"/></g>
<g><path style="opacity:1" fill="#f59d37" d="M 215.5,257.5 C 219.833,257.5 224.167,257.5 228.5,257.5C 234.5,257.5 240.5,257.5 246.5,257.5C 247.871,258.787 249.705,259.453 252,259.5C 258.169,260.215 264.335,260.881 270.5,261.5C 274.006,268.841 279.673,271.008 287.5,268C 289.76,267.451 291.426,266.284 292.5,264.5C 293.552,264.649 294.552,264.483 295.5,264C 293.457,262.292 291.79,260.292 290.5,258C 291,257.833 291.5,257.667 292,257.5C 297.008,259.723 302.175,261.057 307.5,261.5C 307.5,271.5 307.5,281.5 307.5,291.5C 276.21,285.618 244.877,279.952 213.5,274.5C 217.118,269.171 215.784,266.504 209.5,266.5C 209.5,265.5 209.5,264.5 209.5,263.5C 207.097,263.552 204.764,263.219 202.5,262.5C 201.524,261.185 200.524,259.852 199.5,258.5C 204.792,257.505 210.125,257.172 215.5,257.5 Z"/></g>
<g><path style="opacity:1" fill="#bfd1e0" d="M 376.5,165.5 C 377.497,183.993 377.83,202.659 377.5,221.5C 381.167,221.5 384.833,221.5 388.5,221.5C 388.5,223.833 388.5,226.167 388.5,228.5C 390.993,228.329 392.826,229.329 394,231.5C 394.333,236.5 394.667,241.5 395,246.5C 396.833,244.833 398.667,243.167 400.5,241.5C 403.238,241.887 405.572,242.887 407.5,244.5C 406.504,244.414 405.671,244.748 405,245.5C 403.609,243.285 401.943,243.285 400,245.5C 399.392,249.461 397.226,250.961 393.5,250C 393.628,243.559 393.295,237.059 392.5,230.5C 391.167,230.5 389.833,230.5 388.5,230.5C 390.558,237.751 390.892,245.085 389.5,252.5C 389.649,254.32 390.316,255.82 391.5,257C 389.473,258.396 389.14,260.062 390.5,262C 389.056,263.126 388.39,264.626 388.5,266.5C 389.095,269.14 389.428,271.807 389.5,274.5C 390.552,274.351 391.552,274.517 392.5,275C 389.876,275.576 389.209,276.91 390.5,279C 388.008,287.119 388.008,295.285 390.5,303.5C 388.482,298.269 387.149,292.769 386.5,287C 386.87,284.064 387.537,280.897 388.5,277.5C 388.082,273.157 387.582,268.824 387,264.5C 384.978,261.241 382.145,259.741 378.5,260C 379.451,260.718 379.617,261.551 379,262.5C 375.365,259.338 375.032,256.005 378,252.5C 380.288,255.907 383.455,258.24 387.5,259.5C 388.665,252.189 388.831,244.856 388,237.5C 387,236.833 386,236.167 385,235.5C 384.159,239.12 384.826,242.454 387,245.5C 387.667,247.5 387.667,249.5 387,251.5C 385.526,246.893 384.359,242.227 383.5,237.5C 383.667,235.833 383.833,234.167 384,232.5C 387.118,229.93 388.285,226.596 387.5,222.5C 367.993,222.17 348.659,222.503 329.5,223.5C 328.833,223.167 328.167,222.833 327.5,222.5C 327.5,222.167 327.5,221.833 327.5,221.5C 343.833,221.5 360.167,221.5 376.5,221.5C 376.5,202.833 376.5,184.167 376.5,165.5 Z"/></g>
<g><path style="opacity:1" fill="#7b7fb5" d="M 327.5,222.5 C 328.167,222.833 328.833,223.167 329.5,223.5C 330.167,224.5 330.833,225.5 331.5,226.5C 331.5,227.167 331.833,227.5 332.5,227.5C 333.604,229.389 334.937,231.055 336.5,232.5C 336.5,232.833 336.5,233.167 336.5,233.5C 334.519,235.303 332.352,236.97 330,238.5C 329.802,246.578 329.302,254.578 328.5,262.5C 322.167,262.5 315.833,262.5 309.5,262.5C 309.828,273.346 309.494,284.013 308.5,294.5C 308.5,282.833 308.5,271.167 308.5,259.5C 308.5,255.833 308.5,252.167 308.5,248.5C 308.5,244.5 308.5,240.5 308.5,236.5C 309.492,244.316 309.826,252.316 309.5,260.5C 315.833,260.5 322.167,260.5 328.5,260.5C 328.334,252.826 328.5,245.159 329,237.5C 330.833,236.333 332.333,234.833 333.5,233C 330.584,229.999 328.584,226.499 327.5,222.5 Z"/></g>
<g><path style="opacity:1" fill="#ec8429" d="M 270.5,261.5 C 278.068,261.426 285.401,262.426 292.5,264.5C 291.426,266.284 289.76,267.451 287.5,268C 279.673,271.008 274.006,268.841 270.5,261.5 Z"/></g>
<g><path style="opacity:1" fill="#52bcbc" d="M 145.5,224.5 C 145.833,224.5 146.167,224.5 146.5,224.5C 146.791,225.649 147.624,226.316 149,226.5C 150.939,226.046 152.772,225.379 154.5,224.5C 155.766,225.09 157.099,225.59 158.5,226C 161.304,229.145 163.97,232.312 166.5,235.5C 166.704,237.685 167.37,239.685 168.5,241.5C 168.5,242.833 169.167,243.5 170.5,243.5C 170.5,246.5 170.5,249.5 170.5,252.5C 170.5,252.833 170.5,253.167 170.5,253.5C 170.5,254.167 170.5,254.833 170.5,255.5C 170.13,259.233 169.463,262.899 168.5,266.5C 167.662,266.842 167.328,267.508 167.5,268.5C 166.589,270.751 165.256,272.751 163.5,274.5C 162.209,274.737 161.209,274.404 160.5,273.5C 160.5,272.833 160.5,272.167 160.5,271.5C 159.722,270.844 159.056,270.011 158.5,269C 160.26,266.315 161.594,263.482 162.5,260.5C 162.5,257.833 162.5,255.167 162.5,252.5C 162.5,251.167 162.5,249.833 162.5,248.5C 161.167,248.5 159.833,248.5 158.5,248.5C 158.261,246.533 158.594,244.699 159.5,243C 158.624,241.414 157.624,239.914 156.5,238.5C 152.538,245.043 151.871,251.876 154.5,259C 153.72,261.698 152.387,264.031 150.5,266C 154.002,266.656 154.002,267.989 150.5,270C 146.975,270.179 143.641,270.679 140.5,271.5C 140.167,271.5 139.833,271.5 139.5,271.5C 139.823,265.31 139.49,259.31 138.5,253.5C 139.666,251.834 139.666,250.167 138.5,248.5C 133.156,252.007 127.489,254.674 121.5,256.5C 119.784,256.629 118.117,256.962 116.5,257.5C 116.834,254.812 116.168,252.479 114.5,250.5C 115.209,249.596 116.209,249.263 117.5,249.5C 122.453,248.35 127.12,246.516 131.5,244C 133.919,241.856 135.586,239.356 136.5,236.5C 138.048,236.179 138.715,235.179 138.5,233.5C 140.478,230.193 142.811,227.193 145.5,224.5 Z"/></g>
<g><path style="opacity:1" fill="#48a8b2" d="M 162.5,252.5 C 161.167,252.5 159.833,252.5 158.5,252.5C 158.177,256.226 158.511,259.893 159.5,263.5C 160.735,262.66 161.735,261.66 162.5,260.5C 161.594,263.482 160.26,266.315 158.5,269C 159.056,270.011 159.722,270.844 160.5,271.5C 153.833,271.5 147.167,271.5 140.5,271.5C 143.641,270.679 146.975,270.179 150.5,270C 154.002,267.989 154.002,266.656 150.5,266C 152.387,264.031 153.72,261.698 154.5,259C 151.871,251.876 152.538,245.043 156.5,238.5C 157.624,239.914 158.624,241.414 159.5,243C 158.594,244.699 158.261,246.533 158.5,248.5C 159.833,248.5 161.167,248.5 162.5,248.5C 162.5,249.833 162.5,251.167 162.5,252.5 Z"/></g>
<g><path style="opacity:1" fill="#b9a266" d="M 162.5,252.5 C 162.5,255.167 162.5,257.833 162.5,260.5C 161.735,261.66 160.735,262.66 159.5,263.5C 158.511,259.893 158.177,256.226 158.5,252.5C 159.833,252.5 161.167,252.5 162.5,252.5 Z"/></g>
<g><path style="opacity:1" fill="#032939" d="M 146.5,251.5 C 147.92,257.099 147.753,262.765 146,268.5C 144.912,266.712 144.412,264.712 144.5,262.5C 145.387,258.85 146.053,255.183 146.5,251.5 Z"/></g>
<g><path style="opacity:1" fill="#a3d2e2" d="M 138.5,253.5 C 136.421,253.971 134.421,254.637 132.5,255.5C 128.846,255.942 125.179,256.276 121.5,256.5C 127.489,254.674 133.156,252.007 138.5,248.5C 139.666,250.167 139.666,251.834 138.5,253.5 Z"/></g>
<g><path style="opacity:1" fill="#cbedf1" d="M 146.5,251.5 C 145.359,248.36 145.192,245.027 146,241.5C 146.414,241.043 146.914,240.709 147.5,240.5C 148.988,244.43 148.654,248.096 146.5,251.5 Z"/></g>
<g><path style="opacity:1" fill="#012e3d" d="M 146.5,229.5 C 147.643,229.908 148.643,230.575 149.5,231.5C 147.929,233.882 147.096,236.549 147,239.5C 146.027,236.082 145.86,232.748 146.5,229.5 Z"/></g>
<g><path style="opacity:1" fill="#8c5817" d="M 168.5,266.5 C 173.214,266.173 177.88,266.507 182.5,267.5C 177.544,268.494 172.544,268.827 167.5,268.5C 167.328,267.508 167.662,266.842 168.5,266.5 Z"/></g>
<g><path style="opacity:1" fill="#935714" d="M 227.5,266.5 C 233.021,266.054 238.355,266.554 243.5,268C 237.833,268.667 232.167,268.667 226.5,268C 227.056,267.617 227.389,267.117 227.5,266.5 Z"/></g>
<g><path style="opacity:1" fill="#eb8b68" d="M 202.5,262.5 C 204.764,263.219 207.097,263.552 209.5,263.5C 209.5,264.5 209.5,265.5 209.5,266.5C 215.784,266.504 217.118,269.171 213.5,274.5C 211.379,274.675 209.379,274.341 207.5,273.5C 206.694,272.272 205.694,271.272 204.5,270.5C 205.5,270.5 206.5,270.5 207.5,270.5C 207.815,268.774 207.981,267.107 208,265.5C 205.791,265.011 203.958,264.011 202.5,262.5 Z"/></g>
<g><path style="opacity:1" fill="#d59287" d="M 86.5,266.5 C 89.9269,269.566 91.2602,273.566 90.5,278.5C 89.5,278.5 88.5,278.5 87.5,278.5C 87.81,275.287 87.4767,272.287 86.5,269.5C 86.5,268.5 86.5,267.5 86.5,266.5 Z"/></g>
<g><path style="opacity:1" fill="#466e69" d="M 139.5,272.5 C 139.5,272.167 139.5,271.833 139.5,271.5C 139.833,271.5 140.167,271.5 140.5,271.5C 147.167,271.5 153.833,271.5 160.5,271.5C 160.5,272.167 160.5,272.833 160.5,273.5C 158.958,272.699 157.292,272.366 155.5,272.5C 150.167,272.5 144.833,272.5 139.5,272.5 Z"/></g>
<g><path style="opacity:1" fill="#f0832c" d="M 341.5,267.5 C 341.489,269.017 340.823,270.184 339.5,271C 336.574,271.218 333.74,271.718 331,272.5C 328.826,276.546 327.993,280.879 328.5,285.5C 326.833,285.5 325.167,285.5 323.5,285.5C 323.629,283.784 323.962,282.117 324.5,280.5C 327.054,277.41 328.054,273.744 327.5,269.5C 327.5,269.167 327.5,268.833 327.5,268.5C 328.232,267.192 329.066,265.858 330,264.5C 333.427,267.484 337.26,268.484 341.5,267.5 Z"/></g>
<g><path style="opacity:1" fill="#ea559d" d="M 114.5,270.5 C 114.833,270.5 115.167,270.5 115.5,270.5C 116.575,271.713 117.241,273.213 117.5,275C 116.449,280.927 115.116,286.76 113.5,292.5C 111.955,293.452 110.288,293.785 108.5,293.5C 108.5,292.5 108.5,291.5 108.5,290.5C 109.187,285.452 110.187,280.452 111.5,275.5C 111.953,273.435 112.953,271.768 114.5,270.5 Z"/></g>
<g><path style="opacity:1" fill="#4d2720" d="M 139.5,272.5 C 144.833,272.5 150.167,272.5 155.5,272.5C 155.167,273.167 154.833,273.833 154.5,274.5C 149.833,274.5 145.167,274.5 140.5,274.5C 140.167,274.5 139.833,274.5 139.5,274.5C 139.5,273.833 139.5,273.167 139.5,272.5 Z"/></g>
<g><path style="opacity:1" fill="#f59c38" d="M 342.5,266.5 C 347.448,267.653 352.115,269.319 356.5,271.5C 356.611,272.117 356.944,272.617 357.5,273C 354.443,273.256 351.443,273.756 348.5,274.5C 347.614,275.325 347.281,276.325 347.5,277.5C 349.5,277.833 351.5,278.167 353.5,278.5C 357.694,281.429 362.027,284.095 366.5,286.5C 370.548,289.852 375.215,291.852 380.5,292.5C 381.5,293.833 382.5,295.167 383.5,296.5C 383.5,301.833 383.5,307.167 383.5,312.5C 374.199,313.387 364.866,313.721 355.5,313.5C 355.324,310.273 354.657,307.273 353.5,304.5C 352.538,300.58 350.538,297.247 347.5,294.5C 346.5,293.167 345.5,291.833 344.5,290.5C 340.138,286.264 334.805,284.598 328.5,285.5C 327.993,280.879 328.826,276.546 331,272.5C 333.74,271.718 336.574,271.218 339.5,271C 340.823,270.184 341.489,269.017 341.5,267.5C 342.167,267.5 342.5,267.167 342.5,266.5 Z"/></g>
<g><path style="opacity:1" fill="#96316b" d="M 86.5,269.5 C 87.4767,272.287 87.81,275.287 87.5,278.5C 86.596,277.791 86.2627,276.791 86.5,275.5C 81.1667,275.5 75.8333,275.5 70.5,275.5C 68.0504,275.702 65.717,275.369 63.5,274.5C 63.5,273.833 63.5,273.167 63.5,272.5C 71.1667,272.5 78.8333,272.5 86.5,272.5C 86.5,271.5 86.5,270.5 86.5,269.5 Z"/></g>
<g><path style="opacity:1" fill="#f7fafb" d="M 111.5,275.5 C 110.187,280.452 109.187,285.452 108.5,290.5C 107.566,291.568 107.232,292.901 107.5,294.5C 107.167,294.5 106.833,294.5 106.5,294.5C 101.461,289.463 96.794,284.129 92.5,278.5C 92.2011,276.396 92.5344,274.396 93.5,272.5C 106.062,283.053 106.395,282.72 94.5,271.5C 98.1889,267.126 101.022,267.793 103,273.5C 103.333,272.833 103.667,272.167 104,271.5C 106.157,273.495 108.657,274.828 111.5,275.5 Z"/></g>
<g><path style="opacity:1" fill="#e9a25a" d="M 356.5,271.5 C 361.319,272.773 365.985,274.439 370.5,276.5C 370.672,277.492 370.338,278.158 369.5,278.5C 368.5,278.5 367.5,278.5 366.5,278.5C 363.91,277.872 361.577,276.705 359.5,275C 356.446,274.179 353.446,274.345 350.5,275.5C 351.77,276.288 352.77,277.288 353.5,278.5C 351.5,278.167 349.5,277.833 347.5,277.5C 347.281,276.325 347.614,275.325 348.5,274.5C 351.443,273.756 354.443,273.256 357.5,273C 356.944,272.617 356.611,272.117 356.5,271.5 Z"/></g>
<g><path style="opacity:1" fill="#c98e77" d="M 155.5,272.5 C 157.292,272.366 158.958,272.699 160.5,273.5C 161.209,274.404 162.209,274.737 163.5,274.5C 161.581,278.269 161.081,282.269 162,286.5C 163.302,287.085 164.469,287.751 165.5,288.5C 164.167,288.5 162.833,288.5 161.5,288.5C 160.759,285.587 160.259,282.587 160,279.5C 157.022,279.019 155.189,277.353 154.5,274.5C 154.833,273.833 155.167,273.167 155.5,272.5 Z"/></g>
<g><path style="opacity:1" fill="#da7d54" d="M 327.5,269.5 C 328.054,273.744 327.054,277.41 324.5,280.5C 324.674,278.139 325.007,275.806 325.5,273.5C 325.66,271.847 326.326,270.514 327.5,269.5 Z"/></g>
<g><path style="opacity:1" fill="#aac9e2" d="M 437.5,254.5 C 438.552,254.351 439.552,254.517 440.5,255C 438.809,256.405 436.976,257.572 435,258.5C 434.544,259.744 435.044,260.577 436.5,261C 433.471,261.539 430.471,262.206 427.5,263C 429.833,263.333 432.167,263.667 434.5,264C 433.584,264.374 432.75,264.874 432,265.5C 429.263,271.824 425.429,277.324 420.5,282C 422.311,283.041 422.645,284.207 421.5,285.5C 418.173,288.028 417.839,287.528 420.5,284C 416.086,281.69 412.419,282.69 409.5,287C 400.88,291.068 397.38,288.235 399,278.5C 405.158,276.005 410.491,272.338 415,267.5C 415.49,266.207 415.657,264.873 415.5,263.5C 416.117,263.611 416.617,263.944 417,264.5C 418.368,261.262 418.701,257.928 418,254.5C 417.667,255.167 417.333,255.833 417,256.5C 416.217,254.681 416.717,253.348 418.5,252.5C 419.372,256.73 419.705,260.73 419.5,264.5C 420.685,259.689 422.185,255.022 424,250.5C 423.057,253.707 422.723,257.041 423,260.5C 424.976,253.831 425.642,253.831 425,260.5C 427.18,258.137 428.847,255.47 430,252.5C 430.492,253.549 430.326,254.549 429.5,255.5C 429.846,256.696 430.346,256.696 431,255.5C 432.852,252.806 433.685,250.139 433.5,247.5C 434.797,250.188 434.464,252.688 432.5,255C 433.872,255.402 435.205,255.902 436.5,256.5C 437.298,256.043 437.631,255.376 437.5,254.5 Z"/></g>
<g><path style="opacity:1" fill="#e8fafc" d="M 418.5,274.5 C 420.527,274.338 422.527,274.505 424.5,275C 420.618,276.536 416.618,277.203 412.5,277C 414.723,276.434 416.723,275.6 418.5,274.5 Z"/></g>
<g><path style="opacity:1" fill="#212a49" d="M 63.5,274.5 C 65.717,275.369 68.0504,275.702 70.5,275.5C 70.0268,279.638 67.6935,281.638 63.5,281.5C 63.5,279.167 63.5,276.833 63.5,274.5 Z"/></g>
<g><path style="opacity:1" fill="#d8bfd1" d="M 366.5,278.5 C 367.232,281.266 367.232,283.932 366.5,286.5C 362.027,284.095 357.694,281.429 353.5,278.5C 352.77,277.288 351.77,276.288 350.5,275.5C 353.446,274.345 356.446,274.179 359.5,275C 361.577,276.705 363.91,277.872 366.5,278.5 Z"/></g>
<g><path style="opacity:1" fill="#f7b03f" d="M 207.5,273.5 C 209.379,274.341 211.379,274.675 213.5,274.5C 244.877,279.952 276.21,285.618 307.5,291.5C 307.5,292.833 307.5,294.167 307.5,295.5C 307.443,296.609 307.11,297.609 306.5,298.5C 306.167,298.5 305.833,298.5 305.5,298.5C 303.643,300.282 302.643,302.615 302.5,305.5C 300.124,308.401 298.291,308.068 297,304.5C 296.581,305.672 295.915,306.672 295,307.5C 258.643,306.367 221.977,304.033 185,300.5C 182.931,299.73 181.265,298.397 180,296.5C 175.333,289.833 170.667,283.167 166,276.5C 166.14,274.149 166.64,271.816 167.5,269.5C 181.046,269.005 194.379,270.339 207.5,273.5 Z"/></g>
<g><path style="opacity:1" fill="#29426e" d="M 70.5,275.5 C 75.8333,275.5 81.1667,275.5 86.5,275.5C 86.2627,276.791 86.596,277.791 87.5,278.5C 87.5,279.5 87.5,280.5 87.5,281.5C 87.4748,294.179 87.8082,306.845 88.5,319.5C 87.7784,319.918 87.2784,320.584 87,321.5C 85.257,319.773 83.4236,319.106 81.5,319.5C 80.7025,319.957 80.3691,320.624 80.5,321.5C 79.8587,311.919 78.6921,302.253 77,292.5C 75.984,291.366 75.3173,291.699 75,293.5C 73.5079,299.463 72.3412,305.463 71.5,311.5C 70.0322,314.983 67.8655,315.316 65,312.5C 63.9486,317.239 63.1153,321.906 62.5,326.5C 62.5,319.833 62.5,313.167 62.5,306.5C 63.4927,298.35 63.8261,290.017 63.5,281.5C 67.6935,281.638 70.0268,279.638 70.5,275.5 Z"/></g>
<g><path style="opacity:1" fill="#793e66" d="M 325.5,273.5 C 325.007,275.806 324.674,278.139 324.5,280.5C 323.833,280.833 323.167,281.167 322.5,281.5C 322.903,278.514 323.903,275.848 325.5,273.5 Z"/></g>
<g><path style="opacity:1" fill="#dcbca0" d="M 378.5,282.5 C 375.063,281.944 372.063,280.611 369.5,278.5C 370.338,278.158 370.672,277.492 370.5,276.5C 370.435,276.062 370.601,275.728 371,275.5C 373.697,277.7 376.197,280.033 378.5,282.5 Z"/></g>
<g><path style="opacity:1" fill="#c6e9f6" d="M 92.5,278.5 C 96.794,284.129 101.461,289.463 106.5,294.5C 106.847,298.096 106.18,301.429 104.5,304.5C 105.019,306.913 105.685,309.246 106.5,311.5C 113.7,314.684 121.366,316.351 129.5,316.5C 130.167,316.5 130.833,316.5 131.5,316.5C 131.833,316.5 132.167,316.5 132.5,316.5C 132.918,317.222 133.584,317.722 134.5,318C 118.937,318.185 103.604,320.018 88.5,323.5C 88.5,322.167 88.5,320.833 88.5,319.5C 87.8082,306.845 87.4748,294.179 87.5,281.5C 88.8333,281.5 90.1667,281.5 91.5,281.5C 91.2627,280.209 91.596,279.209 92.5,278.5 Z"/></g>
<g><path style="opacity:1" fill="#e96178" d="M 115.5,270.5 C 116.5,270.5 117.5,270.5 118.5,270.5C 118.528,275.862 118.194,281.195 117.5,286.5C 117.543,293.11 114.209,295.776 107.5,294.5C 107.232,292.901 107.566,291.568 108.5,290.5C 108.5,291.5 108.5,292.5 108.5,293.5C 110.288,293.785 111.955,293.452 113.5,292.5C 115.116,286.76 116.449,280.927 117.5,275C 117.241,273.213 116.575,271.713 115.5,270.5 Z"/></g>
<g><path style="opacity:1" fill="#dc9c5a" d="M 137.5,255.5 C 138.167,260.833 138.833,266.167 139.5,271.5C 139.5,271.833 139.5,272.167 139.5,272.5C 139.5,273.167 139.5,273.833 139.5,274.5C 139.793,281.255 139.46,287.922 138.5,294.5C 137.488,295.872 136.488,297.205 135.5,298.5C 135.312,296.897 135.812,295.563 137,294.5C 137.5,281.504 137.667,268.504 137.5,255.5 Z"/></g>
<g><path style="opacity:1" fill="#ede1e6" d="M 366.5,278.5 C 367.5,278.5 368.5,278.5 369.5,278.5C 372.063,280.611 375.063,281.944 378.5,282.5C 380.429,282.231 382.095,282.731 383.5,284C 382.167,284 380.833,284 379.5,284C 380.444,286.719 380.777,289.552 380.5,292.5C 375.215,291.852 370.548,289.852 366.5,286.5C 367.232,283.932 367.232,281.266 366.5,278.5 Z"/></g>
<g><path style="opacity:1" fill="#d78e49" d="M 324.5,280.5 C 323.962,282.117 323.629,283.784 323.5,285.5C 325.167,285.5 326.833,285.5 328.5,285.5C 334.805,284.598 340.138,286.264 344.5,290.5C 337.368,288.201 330.034,287.201 322.5,287.5C 322.5,286.167 322.5,284.833 322.5,283.5C 322.5,282.833 322.5,282.167 322.5,281.5C 323.167,281.167 323.833,280.833 324.5,280.5 Z"/></g>
<g><path style="opacity:1" fill="#483090" d="M 328.5,262.5 C 328.5,262.833 328.5,263.167 328.5,263.5C 327.699,265.042 327.366,266.708 327.5,268.5C 327.5,268.833 327.5,269.167 327.5,269.5C 326.326,270.514 325.66,271.847 325.5,273.5C 323.903,275.848 322.903,278.514 322.5,281.5C 322.5,282.167 322.5,282.833 322.5,283.5C 321.06,284.946 320.393,286.779 320.5,289C 321.521,291.673 322.855,294.173 324.5,296.5C 326.594,301.685 328.928,306.685 331.5,311.5C 331.5,312.5 331.5,313.5 331.5,314.5C 330.833,314.833 330.167,315.167 329.5,315.5C 328.061,313.64 326.395,311.973 324.5,310.5C 322.929,307.256 320.595,304.589 317.5,302.5C 315.783,303.668 315.116,305.335 315.5,307.5C 315.5,308.833 315.5,310.167 315.5,311.5C 314.662,311.842 314.328,312.508 314.5,313.5C 313.257,315.964 312.257,318.63 311.5,321.5C 310.824,320.398 310.158,319.398 309.5,318.5C 309.167,318.5 308.833,318.5 308.5,318.5C 308.5,310.833 308.5,303.167 308.5,295.5C 308.5,295.167 308.5,294.833 308.5,294.5C 309.494,284.013 309.828,273.346 309.5,262.5C 315.833,262.5 322.167,262.5 328.5,262.5 Z"/></g>
<g><path style="opacity:1" fill="#f5fafb" d="M 407.5,244.5 C 407.421,245.93 407.754,247.264 408.5,248.5C 405.612,253.894 401.778,258.56 397,262.5C 395.5,267.667 397.333,269.5 402.5,268C 404.833,266.333 407.167,264.667 409.5,263C 411.598,262.322 413.598,262.489 415.5,263.5C 415.657,264.873 415.49,266.207 415,267.5C 410.491,272.338 405.158,276.005 399,278.5C 397.38,288.235 400.88,291.068 409.5,287C 412.419,282.69 416.086,281.69 420.5,284C 417.839,287.528 418.173,288.028 421.5,285.5C 421.816,288.978 421.316,292.312 420,295.5C 412.309,302.431 403.476,307.431 393.5,310.5C 392.246,308.741 392.579,307.241 394.5,306C 400.391,302.573 406.224,299.073 412,295.5C 412.627,293.414 412.127,293.081 410.5,294.5C 410.167,294 409.833,293.5 409.5,293C 410.187,291.838 410.353,290.672 410,289.5C 404.664,295.755 398.164,300.421 390.5,303.5C 388.008,295.285 388.008,287.119 390.5,279C 389.209,276.91 389.876,275.576 392.5,275C 391.552,274.517 390.552,274.351 389.5,274.5C 389.428,271.807 389.095,269.14 388.5,266.5C 388.39,264.626 389.056,263.126 390.5,262C 389.14,260.062 389.473,258.396 391.5,257C 390.316,255.82 389.649,254.32 389.5,252.5C 390.892,245.085 390.558,237.751 388.5,230.5C 389.833,230.5 391.167,230.5 392.5,230.5C 393.295,237.059 393.628,243.559 393.5,250C 397.226,250.961 399.392,249.461 400,245.5C 401.943,243.285 403.609,243.285 405,245.5C 405.671,244.748 406.504,244.414 407.5,244.5 Z"/></g>
<g><path style="opacity:1" fill="#7e6d79" d="M 139.5,274.5 C 139.833,274.5 140.167,274.5 140.5,274.5C 140.5,281.167 140.5,287.833 140.5,294.5C 139.833,294.5 139.167,294.5 138.5,294.5C 139.46,287.922 139.793,281.255 139.5,274.5 Z"/></g>
<g><path style="opacity:1" fill="#161d32" d="M 322.5,283.5 C 322.5,284.833 322.5,286.167 322.5,287.5C 330.034,287.201 337.368,288.201 344.5,290.5C 345.5,291.833 346.5,293.167 347.5,294.5C 350.239,300.961 351.905,307.627 352.5,314.5C 350.708,315.309 348.708,315.809 346.5,316C 345.748,316.671 345.414,317.504 345.5,318.5C 336.346,329.936 326.013,331.269 314.5,322.5C 314.5,319.5 314.5,316.5 314.5,313.5C 314.328,312.508 314.662,311.842 315.5,311.5C 316.834,318.33 321,321.664 328,321.5C 335,321.664 339.166,318.33 340.5,311.5C 341.997,302.967 338.33,297.967 329.5,296.5C 327.833,296.5 326.167,296.5 324.5,296.5C 322.855,294.173 321.521,291.673 320.5,289C 320.393,286.779 321.06,284.946 322.5,283.5 Z"/></g>
<g><path style="opacity:1" fill="#cabdde" d="M 329.5,296.5 C 338.33,297.967 341.997,302.967 340.5,311.5C 340.66,309.801 340.494,308.134 340,306.5C 338.084,308.209 335.918,309.543 333.5,310.5C 332.833,313.977 332.166,317.311 331.5,320.5C 331.5,318.5 331.5,316.5 331.5,314.5C 331.5,313.5 331.5,312.5 331.5,311.5C 330.898,306.482 330.232,301.482 329.5,296.5 Z"/></g>
<g><path style="opacity:1" fill="#e7e8f0" d="M 162.5,297.5 C 170.686,301.932 172.52,308.266 168,316.5C 166.961,317.71 165.794,318.71 164.5,319.5C 163.27,313.395 162.27,307.229 161.5,301C 161.514,299.615 161.848,298.449 162.5,297.5 Z"/></g>
<g><path style="opacity:1" fill="#131a32" d="M 307.5,295.5 C 307.833,295.5 308.167,295.5 308.5,295.5C 308.5,303.167 308.5,310.833 308.5,318.5C 306.833,318.5 305.167,318.5 303.5,318.5C 303.5,318.167 303.5,317.833 303.5,317.5C 305.342,311.569 306.342,305.236 306.5,298.5C 307.11,297.609 307.443,296.609 307.5,295.5 Z"/></g>
<g><path style="opacity:1" fill="#1e1f31" d="M 138.5,294.5 C 139.167,294.5 139.833,294.5 140.5,294.5C 140.5,302.833 140.5,311.167 140.5,319.5C 138.653,316.829 135.986,315.829 132.5,316.5C 132.167,316.5 131.833,316.5 131.5,316.5C 132.49,311.919 133.157,307.253 133.5,302.5C 134.674,301.486 135.34,300.153 135.5,298.5C 136.488,297.205 137.488,295.872 138.5,294.5 Z"/></g>
<g><path style="opacity:1" fill="#131d31" d="M 161.5,288.5 C 162.833,288.5 164.167,288.5 165.5,288.5C 168.856,290.198 171.523,292.532 173.5,295.5C 176.297,302.441 178.297,309.441 179.5,316.5C 220.663,317.499 261.997,317.832 303.5,317.5C 303.5,317.833 303.5,318.167 303.5,318.5C 259.997,318.168 216.663,318.501 173.5,319.5C 170.786,322.215 167.786,324.549 164.5,326.5C 164.5,324.167 164.5,321.833 164.5,319.5C 165.794,318.71 166.961,317.71 168,316.5C 172.52,308.266 170.686,301.932 162.5,297.5C 161.597,294.609 161.264,291.609 161.5,288.5 Z"/></g>
<g><path style="opacity:1" fill="#f39a37" d="M 189.5,254.5 C 190.321,263.657 195.321,268.99 204.5,270.5C 205.694,271.272 206.694,272.272 207.5,273.5C 194.379,270.339 181.046,269.005 167.5,269.5C 166.64,271.816 166.14,274.149 166,276.5C 170.667,283.167 175.333,289.833 180,296.5C 181.265,298.397 182.931,299.73 185,300.5C 221.977,304.033 258.643,306.367 295,307.5C 295.915,306.672 296.581,305.672 297,304.5C 298.291,308.068 300.124,308.401 302.5,305.5C 302.813,309.042 302.479,312.375 301.5,315.5C 301.808,313.076 301.474,310.743 300.5,308.5C 298.941,309.074 297.441,309.74 296,310.5C 289.667,309.833 283.333,309.167 277,308.5C 276.667,308.833 276.333,309.167 276,309.5C 273.393,308.73 270.727,308.063 268,307.5C 265.594,309.887 263.094,309.887 260.5,307.5C 248.684,309.166 236.351,309.833 223.5,309.5C 223.167,305.5 222.833,305.5 222.5,309.5C 213.478,309.067 204.478,308.401 195.5,307.5C 191.711,309.169 188.211,308.836 185,306.5C 184.147,308.125 183.147,308.458 182,307.5C 181.503,310.146 181.336,312.813 181.5,315.5C 180.833,313.833 180.167,312.167 179.5,310.5C 179.044,304.78 177.044,299.78 173.5,295.5C 171.523,292.532 168.856,290.198 165.5,288.5C 164.469,287.751 163.302,287.085 162,286.5C 161.081,282.269 161.581,278.269 163.5,274.5C 165.256,272.751 166.589,270.751 167.5,268.5C 172.544,268.827 177.544,268.494 182.5,267.5C 177.88,266.507 173.214,266.173 168.5,266.5C 169.463,262.899 170.13,259.233 170.5,255.5C 177.022,255.823 183.355,255.49 189.5,254.5 Z"/></g>
<g><path style="opacity:1" fill="#cabbe6" d="M 324.5,310.5 C 321.634,309.241 318.634,308.241 315.5,307.5C 315.116,305.335 315.783,303.668 317.5,302.5C 320.595,304.589 322.929,307.256 324.5,310.5 Z"/></g>
<g><path style="opacity:1" fill="#9784c6" d="M 324.5,296.5 C 326.167,296.5 327.833,296.5 329.5,296.5C 330.232,301.482 330.898,306.482 331.5,311.5C 328.928,306.685 326.594,301.685 324.5,296.5 Z"/></g>
<g><path style="opacity:1" fill="#e89447" d="M 117.5,286.5 C 119.36,294.641 116.36,297.641 108.5,295.5C 108.002,298.593 107.002,301.426 105.5,304C 107.313,303.954 108.979,304.12 110.5,304.5C 110.291,305.086 109.957,305.586 109.5,306C 111.174,307.506 112.174,309.339 112.5,311.5C 118.781,312.466 125.115,313.133 131.5,313.5C 131.335,310.15 131.502,306.817 132,303.5C 132.383,302.944 132.883,302.611 133.5,302.5C 133.157,307.253 132.49,311.919 131.5,316.5C 130.833,316.5 130.167,316.5 129.5,316.5C 129.389,315.883 129.056,315.383 128.5,315C 121.082,314.283 113.749,313.116 106.5,311.5C 105.685,309.246 105.019,306.913 104.5,304.5C 106.18,301.429 106.847,298.096 106.5,294.5C 106.833,294.5 107.167,294.5 107.5,294.5C 114.209,295.776 117.543,293.11 117.5,286.5 Z"/></g>
<g><path style="opacity:1" fill="#331f18" d="M 173.5,295.5 C 177.044,299.78 179.044,304.78 179.5,310.5C 179.5,312.5 179.5,314.5 179.5,316.5C 178.297,309.441 176.297,302.441 173.5,295.5 Z"/></g>
<g><path style="opacity:1" fill="#e5dff0" d="M 340.5,311.5 C 339.166,318.33 335,321.664 328,321.5C 321,321.664 316.834,318.33 315.5,311.5C 315.5,310.167 315.5,308.833 315.5,307.5C 318.634,308.241 321.634,309.241 324.5,310.5C 326.395,311.973 328.061,313.64 329.5,315.5C 329.077,317.781 329.744,319.448 331.5,320.5C 332.166,317.311 332.833,313.977 333.5,310.5C 335.918,309.543 338.084,308.209 340,306.5C 340.494,308.134 340.66,309.801 340.5,311.5 Z"/></g>
<g><path style="opacity:1" fill="#2e1e1a" d="M 347.5,294.5 C 350.538,297.247 352.538,300.58 353.5,304.5C 353.5,307.833 353.5,311.167 353.5,314.5C 353.167,314.5 352.833,314.5 352.5,314.5C 351.905,307.627 350.239,300.961 347.5,294.5 Z"/></g>
<g><path style="opacity:1" fill="#3c271e" d="M 305.5,298.5 C 305.833,298.5 306.167,298.5 306.5,298.5C 306.342,305.236 305.342,311.569 303.5,317.5C 261.997,317.832 220.663,317.499 179.5,316.5C 220.833,316.5 262.167,316.5 303.5,316.5C 303.177,310.364 303.844,304.364 305.5,298.5 Z"/></g>
<g><path style="opacity:1" fill="#f28e2d" d="M 301.5,315.5 C 261.5,315.5 221.5,315.5 181.5,315.5C 181.336,312.813 181.503,310.146 182,307.5C 183.147,308.458 184.147,308.125 185,306.5C 188.211,308.836 191.711,309.169 195.5,307.5C 204.478,308.401 213.478,309.067 222.5,309.5C 222.833,305.5 223.167,305.5 223.5,309.5C 236.351,309.833 248.684,309.166 260.5,307.5C 263.094,309.887 265.594,309.887 268,307.5C 270.727,308.063 273.393,308.73 276,309.5C 276.333,309.167 276.667,308.833 277,308.5C 283.333,309.167 289.667,309.833 296,310.5C 297.441,309.74 298.941,309.074 300.5,308.5C 301.474,310.743 301.808,313.076 301.5,315.5 Z"/></g>
<g><path style="opacity:1" fill="#df9750" d="M 383.5,296.5 C 384.488,301.64 384.821,306.974 384.5,312.5C 383.391,313.29 382.058,313.79 380.5,314C 371.506,314.5 362.506,314.666 353.5,314.5C 353.5,311.167 353.5,307.833 353.5,304.5C 354.657,307.273 355.324,310.273 355.5,313.5C 364.866,313.721 374.199,313.387 383.5,312.5C 383.5,307.167 383.5,301.833 383.5,296.5 Z"/></g>
<g><path style="opacity:1" fill="#deded0" d="M 106.5,311.5 C 113.749,313.116 121.082,314.283 128.5,315C 129.056,315.383 129.389,315.883 129.5,316.5C 121.366,316.351 113.7,314.684 106.5,311.5 Z"/></g>
<g><path style="opacity:1" fill="#de9851" d="M 305.5,298.5 C 303.844,304.364 303.177,310.364 303.5,316.5C 262.167,316.5 220.833,316.5 179.5,316.5C 179.5,314.5 179.5,312.5 179.5,310.5C 180.167,312.167 180.833,313.833 181.5,315.5C 221.5,315.5 261.5,315.5 301.5,315.5C 302.479,312.375 302.813,309.042 302.5,305.5C 302.643,302.615 303.643,300.282 305.5,298.5 Z"/></g>
<g><path style="opacity:1" fill="#292530" d="M 331.5,314.5 C 331.5,316.5 331.5,318.5 331.5,320.5C 329.744,319.448 329.077,317.781 329.5,315.5C 330.167,315.167 330.833,314.833 331.5,314.5 Z"/></g>
<g><path style="opacity:1" fill="#202e48" d="M 71.5,311.5 C 71.7504,322.49 70.0838,333.156 66.5,343.5C 65.1667,343.5 63.8333,343.5 62.5,343.5C 62.5,337.833 62.5,332.167 62.5,326.5C 63.1153,321.906 63.9486,317.239 65,312.5C 67.8655,315.316 70.0322,314.983 71.5,311.5 Z"/></g>
<g><path style="opacity:1" fill="#99d9f4" d="M 132.5,316.5 C 135.986,315.829 138.653,316.829 140.5,319.5C 140.5,324.167 140.5,328.833 140.5,333.5C 128.477,333.072 116.477,332.238 104.5,331C 99.3157,330.548 94.3157,329.381 89.5,327.5C 89.7373,326.209 89.404,325.209 88.5,324.5C 88.5,324.167 88.5,323.833 88.5,323.5C 103.604,320.018 118.937,318.185 134.5,318C 133.584,317.722 132.918,317.222 132.5,316.5 Z"/></g>
<g><path style="opacity:1" fill="#94c4dc" d="M 173.5,319.5 C 216.663,318.501 259.997,318.168 303.5,318.5C 305.167,318.5 306.833,318.5 308.5,318.5C 308.833,318.5 309.167,318.5 309.5,318.5C 309.795,320.735 309.461,322.735 308.5,324.5C 307.699,322.958 307.366,321.292 307.5,319.5C 262.833,319.5 218.167,319.5 173.5,319.5 Z"/></g>
<g><path style="opacity:1" fill="#97d9f4" d="M 345.5,318.5 C 345.414,319.496 345.748,320.329 346.5,321C 350.541,321.173 354.541,321.673 358.5,322.5C 360.27,323.82 360.603,325.32 359.5,327C 347.79,330.469 335.79,332.303 323.5,332.5C 270.672,334.031 218.006,334.698 165.5,334.5C 165.167,334.5 164.833,334.5 164.5,334.5C 164.5,331.833 164.5,329.167 164.5,326.5C 167.786,324.549 170.786,322.215 173.5,319.5C 218.167,319.5 262.833,319.5 307.5,319.5C 307.366,321.292 307.699,322.958 308.5,324.5C 307.448,324.351 306.448,324.517 305.5,325C 307.81,325.497 310.143,325.663 312.5,325.5C 312.285,323.821 312.952,322.821 314.5,322.5C 326.013,331.269 336.346,329.936 345.5,318.5 Z"/></g>
<g><path style="opacity:1" fill="#2d2e6c" d="M 314.5,313.5 C 314.5,316.5 314.5,319.5 314.5,322.5C 312.952,322.821 312.285,323.821 312.5,325.5C 310.143,325.663 307.81,325.497 305.5,325C 306.448,324.517 307.448,324.351 308.5,324.5C 309.461,322.735 309.795,320.735 309.5,318.5C 310.158,319.398 310.824,320.398 311.5,321.5C 312.257,318.63 313.257,315.964 314.5,313.5 Z"/></g>
<g><path style="opacity:1" fill="#21304a" d="M 88.5,319.5 C 88.5,320.833 88.5,322.167 88.5,323.5C 88.5,323.833 88.5,324.167 88.5,324.5C 88.5,330.833 88.5,337.167 88.5,343.5C 87.1667,343.5 85.8333,343.5 84.5,343.5C 83.1667,336.167 81.8333,328.833 80.5,321.5C 80.3691,320.624 80.7025,319.957 81.5,319.5C 83.4236,319.106 85.257,319.773 87,321.5C 87.2784,320.584 87.7784,319.918 88.5,319.5 Z"/></g>
<g><path style="opacity:1" fill="#ebeef5" d="M 149.5,322.5 C 150.339,323.641 151.006,324.974 151.5,326.5C 152.325,327.386 153.325,327.719 154.5,327.5C 156.105,329.48 157.272,331.813 158,334.5C 158.501,338.51 159.001,342.51 159.5,346.5C 157.708,346.366 156.042,346.699 154.5,347.5C 151.998,348.779 149.498,348.779 147,347.5C 146.502,344.518 146.335,341.518 146.5,338.5C 146.334,334.326 147,330.326 148.5,326.5C 149.434,325.432 149.768,324.099 149.5,322.5 Z"/></g>
<g><path style="opacity:1" fill="#f3f3f8" d="M 89.5,327.5 C 94.3157,329.381 99.3157,330.548 104.5,331C 116.477,332.238 128.477,333.072 140.5,333.5C 140.5,334.167 140.833,334.5 141.5,334.5C 141.5,338.167 141.5,341.833 141.5,345.5C 124.18,344.679 106.847,344.346 89.5,344.5C 89.5,338.833 89.5,333.167 89.5,327.5 Z"/></g>
<g><path style="opacity:1" fill="#a8dbf0" d="M 323.5,332.5 C 270.997,336.629 218.331,337.296 165.5,334.5C 218.006,334.698 270.672,334.031 323.5,332.5 Z"/></g>
<g><path style="opacity:1" fill="#4b60ae" d="M 148.5,326.5 C 147,330.326 146.334,334.326 146.5,338.5C 145.527,340.948 145.194,343.615 145.5,346.5C 144.167,346.5 142.833,346.5 141.5,346.5C 141.5,346.167 141.5,345.833 141.5,345.5C 141.5,341.833 141.5,338.167 141.5,334.5C 141.5,328.833 141.5,323.167 141.5,317.5C 141.882,315.615 143.215,314.115 145.5,313C 145.167,312.667 144.833,312.333 144.5,312C 145.448,311.517 146.448,311.351 147.5,311.5C 148.329,316.453 148.663,321.453 148.5,326.5 Z"/></g>
<g><path style="opacity:1" fill="#a8a0a6" d="M 88.5,324.5 C 89.404,325.209 89.7373,326.209 89.5,327.5C 89.5,333.167 89.5,338.833 89.5,344.5C 89.5,345.167 89.5,345.833 89.5,346.5C 87.8333,346.5 86.1667,346.5 84.5,346.5C 84.5,346.167 84.5,345.833 84.5,345.5C 84.5,344.833 84.5,344.167 84.5,343.5C 85.8333,343.5 87.1667,343.5 88.5,343.5C 88.5,337.167 88.5,330.833 88.5,324.5 Z"/></g>
<g><path style="opacity:1" fill="#586aac" d="M 140.5,274.5 C 145.167,274.5 149.833,274.5 154.5,274.5C 155.189,277.353 157.022,279.019 160,279.5C 160.259,282.587 160.759,285.587 161.5,288.5C 161.264,291.609 161.597,294.609 162.5,297.5C 161.848,298.449 161.514,299.615 161.5,301C 162.27,307.229 163.27,313.395 164.5,319.5C 164.5,321.833 164.5,324.167 164.5,326.5C 164.5,329.167 164.5,331.833 164.5,334.5C 164.5,338.167 164.5,341.833 164.5,345.5C 164.5,345.833 164.5,346.167 164.5,346.5C 162.833,346.5 161.167,346.5 159.5,346.5C 159.001,342.51 158.501,338.51 158,334.5C 157.272,331.813 156.105,329.48 154.5,327.5C 154.5,325.5 154.5,323.5 154.5,321.5C 155.451,320.081 155.784,318.415 155.5,316.5C 155.5,314.833 155.5,313.167 155.5,311.5C 157.201,311.034 158.701,311.034 160,311.5C 162,310.5 162,309.5 160,308.5C 159.667,299.167 159.333,289.833 159,280.5C 156.122,279.311 153.288,277.978 150.5,276.5C 147.643,277.169 144.81,276.836 142,275.5C 141.5,289.496 141.333,303.496 141.5,317.5C 141.5,323.167 141.5,328.833 141.5,334.5C 140.833,334.5 140.5,334.167 140.5,333.5C 140.5,328.833 140.5,324.167 140.5,319.5C 140.5,311.167 140.5,302.833 140.5,294.5C 140.5,287.833 140.5,281.167 140.5,274.5 Z"/></g>
<g><path style="opacity:1" fill="#767c8b" d="M 149.5,322.5 C 149.5,321.833 149.833,321.5 150.5,321.5C 151.833,321.5 153.167,321.5 154.5,321.5C 154.5,323.5 154.5,325.5 154.5,327.5C 153.325,327.719 152.325,327.386 151.5,326.5C 151.006,324.974 150.339,323.641 149.5,322.5 Z"/></g>
<g><path style="opacity:1" fill="#485cb2" d="M 157.5,312.5 C 158.708,313.234 160.041,313.567 161.5,313.5C 163.626,323.408 163.959,333.408 162.5,343.5C 161.833,342.5 161.167,341.5 160.5,340.5C 158.863,332.191 157.53,323.858 156.5,315.5C 157.127,314.583 157.461,313.583 157.5,312.5 Z"/></g>
<g><path style="opacity:1" fill="#e6e9f7" d="M 155.5,316.5 C 155.784,318.415 155.451,320.081 154.5,321.5C 153.167,321.5 151.833,321.5 150.5,321.5C 149.043,313.799 149.376,306.133 151.5,298.5C 152.217,304.763 153.55,310.763 155.5,316.5 Z"/></g>
<g><path style="opacity:1" fill="#5872c0" d="M 155.5,316.5 C 153.55,310.763 152.217,304.763 151.5,298.5C 149.376,306.133 149.043,313.799 150.5,321.5C 149.833,321.5 149.5,321.833 149.5,322.5C 149.768,324.099 149.434,325.432 148.5,326.5C 148.663,321.453 148.329,316.453 147.5,311.5C 146.448,311.351 145.448,311.517 144.5,312C 144.833,312.333 145.167,312.667 145.5,313C 143.215,314.115 141.882,315.615 141.5,317.5C 141.333,303.496 141.5,289.496 142,275.5C 144.81,276.836 147.643,277.169 150.5,276.5C 153.288,277.978 156.122,279.311 159,280.5C 159.333,289.833 159.667,299.167 160,308.5C 162,309.5 162,310.5 160,311.5C 158.701,311.034 157.201,311.034 155.5,311.5C 155.5,313.167 155.5,314.833 155.5,316.5 Z"/></g>
<g><path style="opacity:1" fill="#c4968c" d="M 62.5,343.5 C 63.8333,343.5 65.1667,343.5 66.5,343.5C 66.5,344.5 66.5,345.5 66.5,346.5C 65.1667,346.5 63.8333,346.5 62.5,346.5C 62.5,345.5 62.5,344.5 62.5,343.5 Z"/></g>
<g><path style="opacity:1" fill="#576e7f" d="M 62.5,346.5 C 63.8333,346.5 65.1667,346.5 66.5,346.5C 65.4855,347.765 63.9855,348.431 62,348.5C 56.1986,347.657 56.3653,346.99 62.5,346.5 Z"/></g>
<g><path style="opacity:1" fill="#415562" d="M 159.5,346.5 C 161.167,346.5 162.833,346.5 164.5,346.5C 164.5,347.167 164.5,347.833 164.5,348.5C 161.5,348.5 158.5,348.5 155.5,348.5C 154.833,348.5 154.5,348.167 154.5,347.5C 156.042,346.699 157.708,346.366 159.5,346.5 Z"/></g>
<g><path style="opacity:1" fill="#aedbee" d="M 164.5,345.5 C 187.101,346.533 187.101,347.533 164.5,348.5C 164.5,347.833 164.5,347.167 164.5,346.5C 164.5,346.167 164.5,345.833 164.5,345.5 Z"/></g>
<g><path style="opacity:1" fill="#b1dcef" d="M 146.5,338.5 C 146.335,341.518 146.502,344.518 147,347.5C 149.498,348.779 151.998,348.779 154.5,347.5C 154.5,348.167 154.833,348.5 155.5,348.5C 131.672,349.498 107.672,349.831 83.5,349.5C 83.2322,347.901 83.5655,346.568 84.5,345.5C 84.5,345.833 84.5,346.167 84.5,346.5C 85.1522,347.725 86.3189,348.392 88,348.5C 91.5006,348.704 92.0006,348.037 89.5,346.5C 89.5,345.833 89.5,345.167 89.5,344.5C 106.847,344.346 124.18,344.679 141.5,345.5C 141.5,345.833 141.5,346.167 141.5,346.5C 139.571,346.231 137.905,346.731 136.5,348C 138,348.167 139.5,348.333 141,348.5C 142.986,348.431 144.486,347.765 145.5,346.5C 145.194,343.615 145.527,340.948 146.5,338.5 Z"/></g>
<g><path style="opacity:1" fill="#3d525f" d="M 141.5,346.5 C 142.833,346.5 144.167,346.5 145.5,346.5C 144.486,347.765 142.986,348.431 141,348.5C 139.5,348.333 138,348.167 136.5,348C 137.905,346.731 139.571,346.231 141.5,346.5 Z"/></g>
<g><path style="opacity:1" fill="#456478" d="M 84.5,346.5 C 86.1667,346.5 87.8333,346.5 89.5,346.5C 92.0006,348.037 91.5006,348.704 88,348.5C 86.3189,348.392 85.1522,347.725 84.5,346.5 Z"/></g>
</svg>
